<svg width="28" height="29" viewBox="0 0 28 29" fill="none" xmlns="http://www.w3.org/2000/svg">
<path d="M14 0.941284C6.26875 0.941284 0 7.21003 0 14.9413C0 22.6725 6.26875 28.9413 14 28.9413C21.7313 28.9413 28 22.6725 28 14.9413C28 7.21003 21.7313 0.941284 14 0.941284ZM19.1688 20.26L17.1063 20.2507L14 16.5475L10.8969 20.2475L8.83125 20.2569C8.69375 20.2569 8.58125 20.1475 8.58125 20.0069C8.58125 19.9475 8.60312 19.8913 8.64062 19.8444L12.7063 15.0007L8.64062 10.16C8.60286 10.1142 8.58191 10.0569 8.58125 9.99753C8.58125 9.86003 8.69375 9.74753 8.83125 9.74753L10.8969 9.75691L14 13.46L17.1031 9.76003L19.1656 9.75066C19.3031 9.75066 19.4156 9.86003 19.4156 10.0007C19.4156 10.06 19.3938 10.1163 19.3563 10.1632L15.2969 15.0038L19.3594 19.8475C19.3969 19.8944 19.4188 19.9507 19.4188 20.01C19.4188 20.1475 19.3063 20.26 19.1688 20.26Z" fill="#00983D"/>
</svg>
