<svg width="21" height="22" viewBox="0 0 21 22" fill="none" xmlns="http://www.w3.org/2000/svg">
<path d="M10.5 21.9413C9.99666 21.9413 9.52986 21.6183 9.11261 20.9812C8.65524 20.2829 7.67673 20.0207 6.93156 20.3968C6.28068 20.7252 5.72188 20.7595 5.27047 20.4989C4.81917 20.2384 4.56955 19.7373 4.52854 19.0094C4.48157 18.176 3.76532 17.4597 2.93184 17.4127C2.20402 17.3718 1.70285 17.1222 1.44223 16.6708C1.18166 16.2194 1.21603 15.6606 1.54448 15.0098C1.92056 14.2645 1.65838 13.286 0.960012 12.8286C0.322998 12.4114 0 11.9446 0 11.4413C0 10.9379 0.322998 10.4711 0.960094 10.0539C1.65838 9.59652 1.92056 8.61806 1.54448 7.87276C1.21611 7.22201 1.1817 6.66321 1.44223 6.21183C1.70289 5.76042 2.2041 5.51075 2.93192 5.46978C3.76532 5.42282 4.48157 4.7066 4.52854 3.87316C4.56951 3.14534 4.81913 2.64417 5.27051 2.38356C5.72184 2.1229 6.28072 2.15727 6.9316 2.48577C7.67685 2.86184 8.65528 2.59967 9.11277 1.9013C9.52994 1.26428 9.9967 0.941284 10.5 0.941284C11.0033 0.941284 11.4701 1.26428 11.8873 1.90125C12.3447 2.59967 13.3232 2.8618 14.0684 2.48573C14.7193 2.15727 15.2781 2.1229 15.7295 2.38352C16.1809 2.64413 16.4305 3.14534 16.4715 3.87316C16.5185 4.70656 17.2347 5.42282 18.0681 5.46978C18.7959 5.51075 19.2971 5.76037 19.5577 6.21175C19.8183 6.66317 19.7839 7.22197 19.4555 7.87276C19.0794 8.61806 19.3416 9.59652 20.0399 10.0539C20.677 10.4711 21 10.9379 21 11.4413C21 11.9446 20.677 12.4114 20.04 12.8286C19.3416 13.286 19.0794 14.2644 19.4555 15.0098C19.7839 15.6606 19.8183 16.2194 19.5578 16.6708C19.2972 17.1221 18.796 17.3718 18.0682 17.4127C17.2347 17.4597 16.5184 18.176 16.4714 19.0094C16.4304 19.7373 16.1808 20.2384 15.7294 20.499C15.2781 20.7596 14.7192 20.7252 14.0684 20.3968C13.3231 20.0207 12.3447 20.2829 11.8874 20.9812C11.4701 21.6183 11.0033 21.9413 10.5 21.9413ZM10.142 20.3071C10.3313 20.5961 10.458 20.6826 10.5 20.7052C10.5421 20.6826 10.6687 20.5961 10.858 20.3071C11.6609 19.0812 13.3146 18.6382 14.6228 19.2983C14.941 19.4589 15.0935 19.4454 15.1142 19.4334C15.135 19.4214 15.2229 19.2961 15.243 18.9403C15.3254 17.4772 16.5359 16.2666 17.999 16.1842C18.3549 16.1642 18.4802 16.0763 18.4922 16.0555C18.5041 16.0349 18.5176 15.8824 18.357 15.5641C17.6969 14.2559 18.14 12.6021 19.3659 11.7993C19.6549 11.6099 19.7413 11.4834 19.764 11.4413C19.7414 11.3992 19.6549 11.2726 19.3658 11.0833C18.14 10.2804 17.6969 8.62667 18.3571 7.31839C18.5177 7.00019 18.5041 6.8477 18.4922 6.82698C18.4803 6.80635 18.3549 6.71833 17.999 6.69828C16.536 6.61588 15.3254 5.40534 15.2431 3.94236C15.223 3.58642 15.135 3.46104 15.1143 3.4491C15.0937 3.43713 14.9411 3.42363 14.6229 3.58425C13.3103 4.24665 11.6583 3.79716 10.8581 2.57543C10.6688 2.28643 10.5422 2.19997 10.5001 2.17729C10.458 2.19997 10.3314 2.28639 10.1421 2.57539C9.33922 3.80122 7.68555 4.2444 6.37727 3.58421C6.05895 3.42355 5.9065 3.43713 5.88587 3.44906C5.86515 3.46104 5.77713 3.58638 5.75708 3.94232C5.67468 5.4053 4.46414 6.61588 3.00115 6.69824C2.64522 6.71829 2.51984 6.80631 2.5079 6.82703C2.49601 6.84766 2.48247 7.00015 2.64305 7.31835C3.30323 8.62663 2.8601 10.2803 1.63431 11.0832C1.34519 11.2725 1.25877 11.3992 1.23613 11.4412C1.25877 11.4833 1.34519 11.6099 1.63427 11.7993C2.8601 12.6021 3.30323 14.2558 2.64309 15.5641C2.48247 15.8824 2.49601 16.0349 2.50794 16.0555C2.51988 16.0762 2.64518 16.1642 3.00107 16.1842C4.4641 16.2666 5.67472 17.4772 5.75712 18.9403C5.77717 19.2961 5.86507 19.4214 5.88578 19.4333C5.90658 19.4453 6.05903 19.4589 6.37727 19.2983C7.68986 18.6359 9.34176 19.0853 10.142 20.3071Z" fill="white"/>
<path d="M8.03906 9.59558C7.02134 9.59558 6.19336 8.7676 6.19336 7.74988C6.19336 6.73216 7.02134 5.90417 8.03906 5.90417C9.05678 5.90417 9.88477 6.73216 9.88477 7.74988C9.88477 8.7676 9.05678 9.59558 8.03906 9.59558ZM8.03906 7.13464C7.69982 7.13464 7.42383 7.41064 7.42383 7.74988C7.42383 8.08912 7.69982 8.36511 8.03906 8.36511C8.3783 8.36511 8.6543 8.08912 8.6543 7.74988C8.6543 7.41064 8.3783 7.13464 8.03906 7.13464Z" fill="white"/>
<path d="M12.9609 16.9784C11.9432 16.9784 11.1152 16.1504 11.1152 15.1327C11.1152 14.115 11.9432 13.287 12.9609 13.287C13.9787 13.287 14.8066 14.115 14.8066 15.1327C14.8066 16.1504 13.9787 16.9784 12.9609 16.9784ZM12.9609 14.5175C12.6217 14.5175 12.3457 14.7935 12.3457 15.1327C12.3457 15.4719 12.6217 15.7479 12.9609 15.7479C13.3002 15.7479 13.5762 15.4719 13.5762 15.1327C13.5762 14.7935 13.3002 14.5175 12.9609 14.5175Z" fill="white"/>
<path d="M6.31641 15.994L13.6992 6.15027L14.6836 6.88855L7.30078 16.7323L6.31641 15.994Z" fill="white"/>
</svg>
