<svg width="369" height="104" viewBox="0 0 369 104" fill="none" xmlns="http://www.w3.org/2000/svg">
<rect x="1" y="1" width="367" height="102" fill="white" stroke="#00983D" stroke-width="2" stroke-dasharray="5 5"/>
<rect x="162.552" y="18.5523" width="43.0825" height="43.0825" rx="8.2851" stroke="#00983D" stroke-width="1.10468"/>
<path d="M190.722 41.0398H185.04V46.721H183.147V41.0398H177.465V39.1461H183.147V33.4648H185.04V39.1461H190.722V41.0398Z" fill="#00983D"/>
<path d="M137.013 81.1875H138.067L134.12 70.6187H133.124L129.168 81.1875H130.23L131.402 77.9502H135.841L137.013 81.1875ZM133.6 71.8564H133.644L135.541 77.0859H131.703L133.6 71.8564ZM141.766 81.312C142.997 81.312 143.971 80.6016 144.403 79.5762H144.425V81.1875H145.348V70.6187H144.374V75.1377H144.352C143.949 74.1489 142.975 73.4458 141.744 73.4458C139.833 73.4458 138.507 75.0059 138.507 77.3789C138.507 79.7446 139.84 81.312 141.766 81.312ZM141.935 74.3027C143.385 74.3027 144.381 75.5405 144.381 77.3789C144.381 79.2246 143.385 80.4551 141.935 80.4551C140.47 80.4551 139.503 79.2393 139.503 77.3789C139.503 75.5186 140.47 74.3027 141.935 74.3027ZM149.969 81.312C151.2 81.312 152.174 80.6016 152.606 79.5762H152.628V81.1875H153.551V70.6187H152.577V75.1377H152.555C152.152 74.1489 151.178 73.4458 149.947 73.4458C148.036 73.4458 146.71 75.0059 146.71 77.3789C146.71 79.7446 148.043 81.312 149.969 81.312ZM150.138 74.3027C151.588 74.3027 152.584 75.5405 152.584 77.3789C152.584 79.2246 151.588 80.4551 150.138 80.4551C148.673 80.4551 147.706 79.2393 147.706 77.3789C147.706 75.5186 148.673 74.3027 150.138 74.3027ZM159.513 81.1875V72.3545H159.564L165.782 81.1875H166.749V70.6187H165.76V79.4443H165.709L159.513 70.6187H158.524V81.1875H159.513ZM171.59 74.2954C172.967 74.2954 173.883 75.3428 173.905 76.8442H169.203C169.283 75.3428 170.228 74.2954 171.59 74.2954ZM173.846 79.0269C173.634 79.8618 172.835 80.4624 171.686 80.4624C170.169 80.4624 169.195 79.3931 169.195 77.6719V77.6133H174.901V77.2031C174.901 74.9326 173.626 73.4458 171.605 73.4458C169.54 73.4458 168.199 75.0352 168.199 77.4009C168.199 79.8179 169.525 81.312 171.664 81.312C173.341 81.312 174.579 80.3452 174.806 79.0269H173.846ZM185.689 73.5703H184.715L183.009 80.1035H182.987L181.09 73.5703H180.108L178.211 80.1035H178.189L176.483 73.5703H175.501L177.669 81.1875H178.695L180.584 74.8667H180.606L182.503 81.1875H183.529L185.689 73.5703ZM196.925 81.1875H197.979L194.032 70.6187H193.036L189.081 81.1875H190.143L191.314 77.9502H195.753L196.925 81.1875ZM193.512 71.8564H193.556L195.453 77.0859H191.615L193.512 71.8564ZM201.678 81.312C202.909 81.312 203.883 80.6016 204.315 79.5762H204.337V81.1875H205.26V70.6187H204.286V75.1377H204.264C203.861 74.1489 202.887 73.4458 201.656 73.4458C199.745 73.4458 198.419 75.0059 198.419 77.3789C198.419 79.7446 199.752 81.312 201.678 81.312ZM201.847 74.3027C203.297 74.3027 204.293 75.5405 204.293 77.3789C204.293 79.2246 203.297 80.4551 201.847 80.4551C200.382 80.4551 199.415 79.2393 199.415 77.3789C199.415 75.5186 200.382 74.3027 201.847 74.3027ZM209.881 81.312C211.112 81.312 212.086 80.6016 212.518 79.5762H212.54V81.1875H213.463V70.6187H212.489V75.1377H212.467C212.064 74.1489 211.09 73.4458 209.859 73.4458C207.948 73.4458 206.622 75.0059 206.622 77.3789C206.622 79.7446 207.955 81.312 209.881 81.312ZM210.05 74.3027C211.5 74.3027 212.496 75.5405 212.496 77.3789C212.496 79.2246 211.5 80.4551 210.05 80.4551C208.585 80.4551 207.618 79.2393 207.618 77.3789C207.618 75.5186 208.585 74.3027 210.05 74.3027ZM215.206 81.1875H216.173V76.4414C216.173 75.2109 216.861 74.3687 217.945 74.3687C218.275 74.3687 218.546 74.4199 218.67 74.4785V73.5264C218.553 73.4971 218.326 73.4458 218.07 73.4458C217.132 73.4458 216.422 73.9951 216.144 74.9253H216.122V73.5703H215.206V81.1875ZM222.289 74.2954C223.666 74.2954 224.581 75.3428 224.603 76.8442H219.901C219.981 75.3428 220.926 74.2954 222.289 74.2954ZM224.544 79.0269C224.332 79.8618 223.534 80.4624 222.384 80.4624C220.868 80.4624 219.894 79.3931 219.894 77.6719V77.6133H225.599V77.2031C225.599 74.9326 224.325 73.4458 222.303 73.4458C220.238 73.4458 218.897 75.0352 218.897 77.4009C218.897 79.8179 220.223 81.312 222.362 81.312C224.039 81.312 225.277 80.3452 225.504 79.0269H224.544ZM226.742 75.6064C226.742 76.6172 227.401 77.269 228.778 77.6133L230.016 77.9209C231.034 78.1699 231.415 78.5215 231.415 79.1807C231.415 79.979 230.66 80.5137 229.518 80.5137C228.375 80.5137 227.628 79.957 227.489 79.0562H226.522C226.646 80.3965 227.826 81.312 229.459 81.312C231.18 81.312 232.389 80.3965 232.389 79.1074C232.389 78.0161 231.817 77.4595 230.294 77.0786L229.166 76.8076C228.148 76.5586 227.701 76.1777 227.701 75.5552C227.701 74.7935 228.412 74.2441 229.452 74.2441C230.506 74.2441 231.202 74.8008 231.319 75.7017H232.25C232.154 74.3613 231.041 73.4458 229.481 73.4458C227.87 73.4458 226.742 74.3467 226.742 75.6064ZM233.539 75.6064C233.539 76.6172 234.198 77.269 235.575 77.6133L236.812 77.9209C237.831 78.1699 238.211 78.5215 238.211 79.1807C238.211 79.979 237.457 80.5137 236.314 80.5137C235.172 80.5137 234.425 79.957 234.286 79.0562H233.319C233.443 80.3965 234.623 81.312 236.256 81.312C237.977 81.312 239.186 80.3965 239.186 79.1074C239.186 78.0161 238.614 77.4595 237.091 77.0786L235.963 76.8076C234.945 76.5586 234.498 76.1777 234.498 75.5552C234.498 74.7935 235.208 74.2441 236.249 74.2441C237.303 74.2441 237.999 74.8008 238.116 75.7017H239.046C238.951 74.3613 237.838 73.4458 236.278 73.4458C234.667 73.4458 233.539 74.3467 233.539 75.6064Z" fill="#00983D"/>
</svg>
