<svg width="31" height="30" viewBox="0 0 31 30" fill="none" xmlns="http://www.w3.org/2000/svg">
<path fill-rule="evenodd" clip-rule="evenodd" d="M0.778581 28.9804H0.68139C0.68139 28.9318 0.657049 28.8588 0.657049 28.8343C0.657049 28.8101 0.657049 28.7616 0.584024 28.7616H0.437974V28.9804H0.364949V28.4695H0.584024C0.68139 28.4695 0.754239 28.494 0.754239 28.5911C0.754239 28.6641 0.729897 28.6886 0.705732 28.7126C0.730074 28.7371 0.754239 28.7614 0.754239 28.8101V28.9073C0.754239 28.9318 0.754239 28.9318 0.778581 28.9318V28.9804ZM0.68139 28.6156C0.68139 28.5426 0.632707 28.5426 0.608365 28.5426H0.437974V28.6886H0.584024C0.632707 28.6886 0.68139 28.6641 0.68139 28.6156ZM1.09502 28.7128C1.09502 28.421 0.851782 28.1774 0.53534 28.1774C0.243417 28.1774 0 28.421 0 28.7128C0 29.029 0.243417 29.2726 0.53534 29.2726C0.851606 29.2724 1.09502 29.029 1.09502 28.7128ZM1.022 28.7128C1.022 28.9805 0.803099 29.1751 0.53534 29.1751C0.267582 29.1751 0.073025 28.9804 0.073025 28.7128C0.073025 28.4695 0.267758 28.2505 0.53534 28.2505C0.802922 28.2505 1.022 28.4695 1.022 28.7128ZM31 18.8824C31 19.6125 30.5377 19.9528 29.7102 19.9528H28.1289V19.2227H29.7102C29.8563 19.2227 29.978 19.1985 30.0269 19.15C30.0754 19.1012 30.1241 19.0281 30.1241 18.9309C30.1241 18.8334 30.0755 18.7362 30.0269 18.6877C29.978 18.6388 29.8808 18.6147 29.7348 18.6147C28.9807 18.5902 28.0316 18.6388 28.0316 17.5683C28.0316 17.0815 28.3478 16.5462 29.1994 16.5462H30.8296V17.2762H29.321C29.1753 17.2762 29.0777 17.2762 29.0047 17.3247C28.9317 17.3978 28.8832 17.4708 28.8832 17.5925C28.8832 17.7142 28.9562 17.7872 29.0534 17.8361C29.1509 17.8603 29.2483 17.8846 29.37 17.8846H29.8078C30.2701 17.8846 30.5622 17.9818 30.7569 18.1524C30.9026 18.3226 31 18.5418 31 18.8824ZM27.5691 18.1524C27.3743 17.9818 27.0822 17.8846 26.6199 17.8846H26.1821C26.0606 17.8846 25.963 17.8601 25.8658 17.8361C25.7683 17.7872 25.6956 17.7142 25.6956 17.5925C25.6956 17.4708 25.7198 17.3978 25.8172 17.3247C25.8902 17.2762 25.9874 17.2762 26.1334 17.2762H27.6421V16.5462H26.0119C25.1358 16.5462 24.8437 17.0815 24.8437 17.5683C24.8437 18.6387 25.7928 18.5902 26.5472 18.6147C26.6929 18.6147 26.7905 18.6388 26.839 18.6877C26.8875 18.7362 26.9365 18.8334 26.9365 18.9309C26.9365 19.0281 26.8877 19.1012 26.839 19.15C26.766 19.1985 26.6688 19.2227 26.5227 19.2227H24.941V19.9528H26.5227C27.3498 19.9528 27.8123 19.6123 27.8123 18.8824C27.8123 18.5418 27.7151 18.3226 27.5691 18.1524ZM24.4544 19.2474H22.5325V18.566H24.4059V17.885H22.5325V17.2521H24.4544V16.5465H21.7294V19.9529H24.4544V19.2474ZM20.8532 16.7169C20.5855 16.5709 20.2692 16.5463 19.8556 16.5463H17.9821V19.9528H18.8092V18.7119H19.6854C19.9771 18.7119 20.1477 18.7364 20.2694 18.8579C20.4154 19.0281 20.4154 19.3202 20.4154 19.5393V19.9528H21.2182V19.2957C21.2182 18.9794 21.194 18.8334 21.0966 18.6632C21.0236 18.5656 20.8779 18.4441 20.6832 18.3711C20.9019 18.2984 21.2672 18.0063 21.2672 17.4708C21.267 17.0817 21.121 16.8626 20.8532 16.7169ZM16.2301 16.5463H13.6264L12.5801 17.6657L11.5824 16.5463H8.29751V19.9528H11.5339L12.5802 18.8334L13.5779 19.9528H15.1596V18.8094H16.1816C16.8871 18.8094 17.593 18.6147 17.593 17.6657C17.5929 16.7411 16.8628 16.5463 16.2301 16.5463ZM20.1962 17.9578C20.0746 18.0063 19.9529 18.0063 19.8069 18.0063L18.8092 18.0308V17.2519H19.8069C19.9529 17.2519 20.099 17.2519 20.1962 17.3249C20.2937 17.3738 20.3664 17.471 20.3664 17.617C20.3664 17.7631 20.2937 17.8848 20.1962 17.9578ZM16.2301 18.128H15.1594V17.2519H16.2301C16.5222 17.2519 16.7167 17.3738 16.7167 17.6657C16.7167 17.9578 16.522 18.128 16.2301 18.128ZM13.0911 18.2496L14.3563 16.9115V19.661L13.0911 18.2496ZM11.1201 19.2474H9.10043V18.566H10.901V17.885H9.10043V17.2521H11.1444L12.0447 18.2497L11.1201 19.2474ZM28.7369 14.0887H27.5691L26.0361 11.5337V14.0887H24.3817L24.0651 13.3343H22.3619L22.0456 14.0887H21.0965C20.7072 14.0887 20.1962 13.9913 19.9044 13.6992C19.6367 13.4073 19.4906 13.018 19.4906 12.4097C19.4906 11.8987 19.5637 11.4364 19.9284 11.0714C20.1717 10.8036 20.6098 10.6821 21.1693 10.6821H21.9479V11.4122H21.1693C20.8776 11.4122 20.707 11.4609 20.5368 11.6069C20.3907 11.753 20.3177 12.0206 20.3177 12.3855C20.3177 12.7504 20.3907 13.0182 20.5368 13.1886C20.6583 13.3101 20.8776 13.3588 21.0963 13.3588H21.4614L22.6293 10.6823H23.846L25.2086 13.8942V10.6821H26.474L27.9097 13.0424V10.6821H28.7368L28.7369 14.0887ZM19.077 10.6821H18.2499V14.0887H19.077V10.6821ZM17.3493 10.8282C17.0815 10.6821 16.7898 10.6821 16.3761 10.6821H14.5023V14.0887H15.3053V12.8476H16.1812C16.4733 12.8476 16.668 12.872 16.7896 12.9937C16.9356 13.1641 16.9111 13.4562 16.9111 13.6507V14.0887H17.7382V13.4073C17.7382 13.1154 17.714 12.9693 17.5925 12.799C17.5195 12.7016 17.3734 12.5799 17.2032 12.507C17.4219 12.4097 17.7872 12.1421 17.7872 11.6067C17.7874 11.2175 17.6168 10.9984 17.3493 10.8282ZM13.9183 13.3832H12.0204V12.7018H13.894V11.9962H12.0204V11.3878H13.9183V10.6823H11.1931V14.0889H13.9183V13.3832ZM10.5847 10.6821H9.24648L8.24883 12.9937L7.17815 10.6821H5.86423V13.894L4.47728 10.6821H3.26073L1.80075 14.0887H2.6767L2.99297 13.3343H4.69618L5.01244 14.0887H6.66715V11.4122L7.85936 14.0887H8.56492L9.75731 11.4122V14.0887H10.5846L10.5847 10.6821ZM23.7733 12.6044L23.2135 11.2661L22.654 12.6044H23.7733ZM16.7167 12.0692C16.5952 12.1423 16.4735 12.1423 16.3031 12.1423H15.3053V11.388H16.3029C16.449 11.388 16.619 11.388 16.7166 11.4367C16.8137 11.5097 16.8626 11.6071 16.8626 11.753C16.8626 11.8988 16.8139 12.0204 16.7167 12.0692ZM3.28489 12.6044L3.84457 11.2661L4.40426 12.6044H3.28489ZM30.8054 0H1.77624V12.2638L2.77389 10.0009H4.89074L5.18284 10.5606V10.0009H7.6648L8.22449 11.2175L8.75983 10.0009H16.668C17.0328 10.0009 17.3491 10.0739 17.5927 10.2685V10.0009H19.7582V10.2685C20.123 10.0737 20.5853 10.0009 21.1208 10.0009H24.2596L24.5518 10.5606V10.0009H26.8633L27.2041 10.5606V10.0009H29.4668V14.7701H27.1798L26.742 14.0402V14.7701H23.8949L23.5786 13.9915H22.8727L22.5564 14.7701H21.0723C20.4883 14.7701 20.0501 14.6241 19.7584 14.4782V14.7701H16.2301V13.6751C16.2301 13.529 16.2057 13.5047 16.1084 13.5047H15.9868V14.7699H9.17346V14.1616L8.93022 14.7699H7.49459L7.25135 14.1859V14.7699H4.50162L4.2097 13.9913H3.50397L3.1877 14.7699H1.77624V29.1507H30.8054V20.4151C30.4892 20.5611 30.051 20.6342 29.6131 20.6342H27.496V20.3421C27.2528 20.537 26.8146 20.6342 26.4012 20.6342H19.7339V19.5393C19.7339 19.3933 19.7097 19.3933 19.5878 19.3933H19.4663V20.6342H17.2762V19.3446C16.9115 19.5148 16.4977 19.5148 16.1327 19.5148H15.8893V20.6342H13.2128L12.5802 19.9041L11.8747 20.6342H7.56744V15.8651H11.9474L12.5801 16.5948L13.2614 15.8651H16.2057C16.5462 15.8651 17.106 15.9136 17.3493 16.1569V15.8651H19.9771C20.2449 15.8651 20.756 15.9136 21.0965 16.1569V15.8651H25.0627V16.157C25.2818 15.9623 25.6956 15.8653 26.0604 15.8653H28.2746V16.157C28.5182 15.9868 28.8586 15.8653 29.2968 15.8653H30.8054V0Z" fill="#0077A6"/>
</svg>
