<svg width="104" height="104" viewBox="0 0 104 104" fill="none" xmlns="http://www.w3.org/2000/svg">
<path fill-rule="evenodd" clip-rule="evenodd" d="M0 6C0 2.68629 2.68629 0 6 0H98C101.314 0 104 2.68629 104 6V98C104 101.314 101.314 104 98 104H6C2.68629 104 0 101.314 0 98V6Z" fill="#75BB5E"/>
<path fill-rule="evenodd" clip-rule="evenodd" d="M3.29114 9.29102C3.29114 5.97731 5.97743 3.29102 9.29114 3.29102H94.7089C98.0226 3.29102 100.709 5.97731 100.709 9.29102V94.7087C100.709 98.0225 98.0226 100.709 94.7089 100.709H9.29114C5.97743 100.709 3.29114 98.0225 3.29114 94.7087V9.29102Z" fill="white"/>
<mask id="mask0" mask-type="alpha" maskUnits="userSpaceOnUse" x="3" y="3" width="98" height="98">
<path fill-rule="evenodd" clip-rule="evenodd" d="M3 9C3 5.68629 5.68629 3 9 3H95C98.3137 3 101 5.68629 101 9V95C101 98.3137 98.3137 101 95 101H9C5.68629 101 3 98.3137 3 95V9Z" fill="white"/>
</mask>
<g mask="url(#mask0)">
</g>
<path fill-rule="evenodd" clip-rule="evenodd" d="M72.4158 30.3029L43.2822 59.5045L32.0769 48.2992C30.4173 46.3612 27.8114 45.517 25.3306 46.1138C22.8498 46.7105 20.9129 48.6475 20.3161 51.1282C19.7194 53.609 20.5635 56.2149 22.5015 57.8746L38.4605 73.9015C39.7421 75.1727 41.4771 75.8813 43.2822 75.8709C45.0637 75.8634 46.771 75.1561 48.0359 73.9015L81.9912 39.9462C83.2768 38.6711 84 36.9353 84 35.1246C84 33.3138 83.2768 31.578 81.9912 30.3029C79.3424 27.6699 75.0646 27.6699 72.4158 30.3029Z" fill="#75BB5E"/>
</svg>
