<svg width="126" height="126" viewBox="0 0 126 126" fill="none" xmlns="http://www.w3.org/2000/svg">
<path d="M70.875 106.559C70.875 111.044 67.2393 114.68 62.7539 114.68C58.2685 114.68 54.6328 111.044 54.6328 106.559C54.6328 102.074 58.2685 98.4375 62.7539 98.4375C67.2393 98.4375 70.875 102.074 70.875 106.559ZM46.3666 22.7598C51.7729 21.538 57.3687 20.918 63.001 20.918C83.8382 20.918 103.184 29.364 117.478 44.6997C118.447 45.7398 119.761 46.2656 121.079 46.2656C122.281 46.2656 123.485 45.8282 124.434 44.9448C126.423 43.0914 126.532 39.9768 124.679 37.9878C108.503 20.6325 86.599 11.0742 62.999 11.0742C56.64 11.0742 50.3137 11.775 44.1969 13.1583C41.5447 13.7572 39.8816 16.3922 40.4805 19.0434C41.0794 21.6957 43.7153 23.3597 46.3666 22.7598ZM67.7546 44.5401C67.2711 47.2154 69.0466 49.7753 71.7219 50.2598C82.104 52.1373 91.7507 57.3197 99.6189 65.2485C100.581 66.2175 101.847 66.7029 103.112 66.7029C104.366 66.7029 105.62 66.2271 106.58 65.2744C108.509 63.3595 108.521 60.243 106.606 58.3136C97.308 48.9457 85.8512 42.8117 73.4734 40.5728C70.7991 40.0883 68.2381 41.8657 67.7546 44.5401ZM124.558 117.598L8.40179 1.44196C6.48015 -0.480652 3.3636 -0.480652 1.44196 1.44196C-0.480652 3.3636 -0.480652 6.48015 1.44196 8.40276L17.4573 24.4181C11.6116 28.2075 6.19945 32.7545 1.32179 37.9888C-0.531601 39.9768 -0.422012 43.0914 1.56596 44.9448C2.51477 45.8282 3.71928 46.2656 4.92091 46.2656C6.23886 46.2656 7.55296 45.7398 8.52292 44.6997C13.3429 39.5278 18.7406 35.1164 24.595 31.5558L38.1541 45.1149C31.2895 48.2815 24.8987 52.765 19.3924 58.3146C17.4775 60.2439 17.49 63.3605 19.4193 65.2754C20.3796 66.2281 21.6322 66.7029 22.8858 66.7029C24.1518 66.7029 25.4178 66.2175 26.3801 65.2485C32.0499 59.5335 38.5329 55.3019 45.6754 52.6362L61.4792 68.44C53.4139 68.7697 44.7573 72.6351 38.6358 78.6991C36.7055 80.612 36.691 83.7286 38.604 85.6599C39.5663 86.6308 40.8333 87.1172 42.1003 87.1172C43.3519 87.1172 44.6045 86.6433 45.5648 85.6925C50.1233 81.1763 56.8063 78.2578 62.5924 78.2578H62.5943H62.951H62.9539C66.6683 78.2578 70.7981 79.4508 74.5827 81.6166C74.6308 81.6435 74.6808 81.6647 74.7298 81.6906L117.598 124.559C118.559 125.519 119.819 126 121.078 126C122.337 126 123.598 125.519 124.558 124.559C126.481 122.636 126.481 119.52 124.558 117.598Z" fill="url(#paint0_linear)"/>
<defs>
<linearGradient id="paint0_linear" x1="63.0001" y1="0" x2="63.0001" y2="126" gradientUnits="userSpaceOnUse">
<stop stop-color="#00C113"/>
<stop offset="0.284375" stop-color="#21E261"/>
<stop offset="0.633333" stop-color="#30C699"/>
<stop offset="1" stop-color="#00C5AD"/>
</linearGradient>
</defs>
</svg>
