<svg width="280" height="280" viewBox="0 0 280 280" fill="none" xmlns="http://www.w3.org/2000/svg">
<circle cx="140" cy="140" r="140" fill="#40AA54" fill-opacity="0.1"/>
<path d="M81.1537 110.445L140.303 76.1074L59.0005 114.211L59.6651 115.319L81.1537 110.445Z" fill="#9C480C"/>
<path d="M199.449 110.667L140.3 76.3291L221.603 114.211V115.54L199.449 110.667Z" fill="#D9AF6A"/>
<path d="M140.303 205.262L81.1538 170.925V109.117L140.303 143.455V205.262Z" fill="#B76F3F"/>
<path d="M81.1538 109.117V170.925L140.303 205.262L82.9261 170.039L81.1538 109.117Z" fill="#A45823"/>
<path d="M105.964 185.545V123.516L115.49 129.054V191.526L105.964 185.545Z" fill="#9C480C"/>
<path d="M105.081 185.1V123.071L114.607 128.61V191.082L105.081 185.1Z" fill="#B3A4AD"/>
<path d="M140.302 205.261L199.452 170.924V109.116L140.302 143.454V205.261Z" fill="#D9AF6A"/>
<path d="M140.302 205.262L199.452 170.924V169.816L140.302 204.154V205.262Z" fill="#B58847"/>
<path d="M143.851 193.298L160.687 183.55V169.594L144.072 178.455L143.851 179.341V193.298Z" fill="#9C480C"/>
<path d="M176.857 183.995V122.188L166.666 128.169V189.976L176.857 183.995Z" fill="#9C480C"/>
<path d="M177.302 184.215V121.965L167.111 127.946V190.197L177.302 184.215Z" fill="#D6D6D6"/>
<path d="M98.8798 143.676L85.1448 135.7V115.541L98.8798 123.516V143.676ZM86.474 135.036L97.7721 141.46V124.181L86.474 117.756V135.036Z" fill="#8C4320"/>
<path d="M89.3552 133.707L94.0074 136.366V130.827L89.3552 128.169V133.707Z" fill="#8C4320"/>
<path d="M87.1384 126.84L96.4428 132.157L91.7906 122.631L87.1384 126.84Z" fill="#8C4320"/>
<path d="M144.513 178.679L161.349 168.931L160.906 168.71L144.07 178.457L144.513 178.679Z" fill="#FEFEFE"/>
<path d="M144.513 192.855V178.677L144.07 178.455V192.412L144.513 192.855Z" fill="#8B8B8B"/>
<path d="M144.513 192.855L161.349 183.108V168.93L144.513 178.677V192.855Z" fill="#D6D6D6"/>
<path d="M145.398 180.671L160.463 172.032V171.146L145.398 179.785V180.671Z" fill="#6F6F6F"/>
<path d="M151.604 180.893L160.466 175.797V174.911L151.604 180.006V180.893Z" fill="#8E8E8E"/>
<path d="M145.398 190.418L150.051 187.76V180.228L145.398 182.886V190.418Z" fill="#8E8E8E"/>
<path d="M151.604 182.886L160.466 177.79V176.904L151.604 182V182.886Z" fill="#8E8E8E"/>
<path d="M151.604 184.881L160.466 179.786V178.899L151.604 183.995V184.881Z" fill="#8E8E8E"/>
<path d="M151.604 186.875L160.466 181.78V180.894L151.604 185.989V186.875Z" fill="#8E8E8E"/>
<path d="M81.1537 109.116L140.303 75L118.15 80.0952L59.0005 114.211L81.1537 109.116Z" fill="#D9AF6A"/>
<path d="M199.449 109.116L140.3 75L162.454 80.0952L221.603 114.211L199.449 109.116Z" fill="#E8C583"/>
<path d="M140.303 143.453L81.1538 109.116L140.303 75L199.452 109.116L140.303 143.453Z" fill="#EFD995"/>
<path d="M194.579 109.115L144.513 138.136L140.304 140.573L136.316 138.136L86.2498 109.115L140.304 77.8789L194.579 109.115Z" fill="#9F5939"/>
<path d="M126.568 170.703L67.197 136.365L66.7539 135.258L140.303 143.455V145.448L126.568 170.703Z" fill="#D9AF6A"/>
<path d="M125.903 169.595L66.7539 135.258L81.1535 109.117L140.303 143.455L125.903 169.595Z" fill="#E5BC71"/>
<path d="M199.449 146.555L151.598 173.582L140.3 152.758V145.447L199.449 139.244V146.555Z" fill="#D69985"/>
<path d="M154.035 170.26L213.184 135.922L213.849 135.258L140.3 143.455V145.448L154.035 170.26Z" fill="#B76F3F"/>
<path d="M154.7 169.595L213.849 135.258L199.449 109.117L140.3 143.455L154.7 169.595Z" fill="#FDE697"/>
<path d="M125.903 169.595L66.7539 135.258L67.197 136.365L126.568 170.703L125.903 169.595Z" fill="#9C480C"/>
<path d="M140.304 77.8789V140.573L86.2498 109.115L140.304 77.8789Z" fill="#D19F66"/>
<path d="M144.513 138.137L140.304 140.574L136.317 138.137L140.304 135.7L144.513 138.137Z" fill="#B76F3F"/>
<path d="M194.578 109.117L140.302 117.535L119.921 128.612L140.302 140.575L194.578 109.117Z" fill="#B59FA6"/>
</svg>
