<svg width="23" height="24" viewBox="0 0 23 24" fill="none" xmlns="http://www.w3.org/2000/svg">
<path d="M7.80635 14.6533C7.6326 14.6533 7.51551 14.6711 7.45508 14.689V15.8552C7.52684 15.873 7.61655 15.8779 7.74025 15.8779C8.19256 15.8779 8.47112 15.6384 8.47112 15.2335C8.47112 14.8711 8.23127 14.6533 7.80635 14.6533ZM11.099 14.6652C10.9102 14.6652 10.7874 14.683 10.7147 14.7008V17.2847C10.7874 17.3026 10.9045 17.3026 11.0103 17.3026C11.7818 17.3085 12.2841 16.863 12.2841 15.9205C12.2898 15.0988 11.8318 14.6652 11.099 14.6652Z" fill="white"/>
<path d="M13.2201 2.1001H5.6659C5.16502 2.1001 4.68466 2.3087 4.33049 2.68003C3.97632 3.05135 3.77734 3.55497 3.77734 4.0801V19.9201C3.77734 20.4452 3.97632 20.9488 4.33049 21.3202C4.68466 21.6915 5.16502 21.9001 5.6659 21.9001H16.9972C17.4981 21.9001 17.9785 21.6915 18.3326 21.3202C18.6868 20.9488 18.8858 20.4452 18.8858 19.9201V8.0401L13.2201 2.1001ZM8.96898 16.1482C8.6772 16.4353 8.24661 16.564 7.7452 16.564C7.64797 16.5651 7.5508 16.5592 7.45436 16.5462V17.9579H6.61018V14.0613C6.99115 14.0017 7.3761 13.9745 7.76125 13.9801C8.28721 13.9801 8.66115 14.085 8.91327 14.2959C9.15311 14.4959 9.31553 14.8236 9.31553 15.2097C9.31459 15.5978 9.19183 15.9255 8.96898 16.1482ZM12.5638 17.4896C12.1672 17.8352 11.5639 17.9995 10.8264 17.9995C10.3845 17.9995 10.0719 17.9698 9.85943 17.9401V14.0623C10.2405 14.004 10.6254 13.9765 11.0105 13.9801C11.7253 13.9801 12.1899 14.1147 12.5525 14.4018C12.9444 14.7068 13.1899 15.1929 13.1899 15.8908C13.1899 16.6462 12.9264 17.1679 12.5638 17.4896ZM16.0529 14.7424H14.6063V15.6443H15.9585V16.371H14.6063V17.9589H13.7508V14.0098H16.0529V14.7424ZM13.2201 9.0301H12.2758V4.0801L16.9972 9.0301H13.2201Z" fill="white"/>
</svg>
