<svg width="30" height="16" viewBox="0 0 30 16" fill="none" xmlns="http://www.w3.org/2000/svg">
<path d="M19.3064 14.29H11.5V1.71094H19.3064V14.29Z" fill="#FF5F00"/>
<path d="M12.0001 8C12.0001 5.44828 13.3326 3.17528 15.4076 1.71047C13.8902 0.639329 11.9751 6.6693e-07 9.89381 6.6693e-07C4.96657 6.6693e-07 0.972473 3.58166 0.972473 8C0.972473 12.4183 4.96657 16 9.89381 16C11.9751 16 13.8902 15.3607 15.4076 14.2895C13.3326 12.8247 12.0001 10.5517 12.0001 8" fill="#EB001B"/>
<path d="M29.8348 8C29.8348 12.4183 25.8407 16 20.9135 16C18.8322 16 16.9171 15.3607 15.3991 14.2895C17.4748 12.8247 18.8073 10.5517 18.8073 8C18.8073 5.44828 17.4748 3.17528 15.3991 1.71047C16.9171 0.639329 18.8322 6.6693e-07 20.9135 6.6693e-07C25.8407 6.6693e-07 29.8348 3.58166 29.8348 8" fill="#F79E1B"/>
</svg>
