<svg width="150" height="150" viewBox="0 0 150 150" fill="none" xmlns="http://www.w3.org/2000/svg">
<path d="M40.4525 95.4011L40.6501 95.4255C41.6106 95.547 42.2701 95.8084 42.6106 96.2036C42.9388 96.5835 43.106 97.3525 43.106 98.4953V110.723L33.7931 93.5684H25.1428V95.4103L25.3495 95.4255C26.7021 95.5318 27.2583 95.7476 27.4862 95.9087C27.775 96.1124 27.9148 96.4832 27.9148 97.0455V117.255C27.9148 118.41 27.7446 119.194 27.4072 119.586C27.0577 119.993 26.4012 120.255 25.4589 120.364L25.2583 120.388V122.203H33.1639V120.41L32.9664 120.385C32.0059 120.264 31.3342 119.993 30.9664 119.577C30.6169 119.179 30.4375 118.398 30.4375 117.258V100.371L42.5954 122.68H45.6287V98.5014C45.6287 97.3859 45.802 96.623 46.1454 96.2309C46.5041 95.8206 47.1789 95.5531 48.1545 95.4315L48.3521 95.4072V93.5744H40.4465V95.4011H40.4525Z" fill="#E61E25"/>
<path d="M63.7956 114.355C63.1269 116.449 62.288 118.027 61.3032 119.042C60.3276 120.045 59.1483 120.556 57.7896 120.556C57.1544 120.556 56.8687 120.413 56.738 120.294C56.5738 120.145 56.4918 119.845 56.4918 119.404V110.811C57.3823 110.96 58.1209 111.389 58.6924 112.088C59.3124 112.848 59.7014 113.89 59.8504 115.185L59.8777 115.431H61.5889V104.936H59.8929L59.8534 105.158C59.6315 106.395 59.2182 107.343 58.6255 107.985C58.0784 108.574 57.3611 108.93 56.4918 109.045V101.577C56.4918 100.784 56.6316 100.538 56.7167 100.462C56.8383 100.353 57.1361 100.222 57.8687 100.222C59.3306 100.222 60.5251 100.653 61.4157 101.507C62.3093 102.362 63.0145 103.757 63.516 105.653L63.5676 105.848H65.2332L65.1056 98.5957H49.3977V100.207L49.6044 100.222C49.8506 100.243 50.0694 100.28 50.2518 100.334C50.422 100.386 50.5618 100.453 50.6712 100.541L50.6773 100.544C50.8232 100.653 50.9265 100.778 50.9843 100.912C51.0238 101.006 51.0724 101.201 51.0724 101.577V119.246C51.0724 119.693 50.9813 119.993 50.7959 120.17C50.65 120.307 50.3247 120.483 49.6013 120.556L49.3977 120.577V122.2H65.2971L65.4642 114.179H63.8473L63.7956 114.355Z" fill="#E61E25"/>
<path d="M81.017 111.001C80.0657 109.995 78.8438 108.925 77.3879 107.828L77.3819 107.824C77.1661 107.669 77.0111 107.557 76.926 107.487L76.5339 107.186C72.7619 104.226 71.9716 102.724 71.9716 101.983C71.9716 101.429 72.1905 100.983 72.6434 100.618C73.1236 100.229 73.7619 100.034 74.5339 100.034C75.6798 100.034 76.695 100.554 77.5582 101.581C78.4335 102.624 79.1691 104.208 79.7374 106.28L79.7891 106.472H81.7587V98.39H80.1356L80.0687 98.4873C79.8955 98.7456 79.6949 98.9402 79.4669 99.0709C79.2359 99.2015 78.9837 99.2684 78.7162 99.2684C78.5703 99.2684 78.1721 99.1863 77.1022 98.7943C76.2056 98.466 75.3941 98.2988 74.6889 98.2988C72.9899 98.2988 71.5249 98.8642 70.3303 99.9827C69.1146 101.122 68.4976 102.554 68.4976 104.244C68.4976 105.01 68.6465 105.773 68.9413 106.518C69.2301 107.247 69.6677 107.976 70.2422 108.688C70.7771 109.332 71.8957 110.329 73.6646 111.73C74.2239 112.171 74.6676 112.517 74.9868 112.764C77.0475 114.454 78.3697 115.688 78.9107 116.429C79.4244 117.131 79.6858 117.824 79.6858 118.484C79.6858 119.159 79.4426 119.694 78.9411 120.119C78.4153 120.566 77.7132 120.794 76.853 120.794C75.5217 120.794 74.312 120.232 73.2543 119.125C72.1874 118.01 71.3182 116.384 70.6738 114.302L70.6191 114.122H68.5796V122.596H70.2361L70.2969 122.535C70.7346 122.083 71.072 121.788 71.2999 121.657C71.5188 121.532 71.7619 121.469 72.0294 121.469C72.1662 121.469 72.6008 121.563 73.8804 122.007C74.9442 122.377 75.9442 122.566 76.856 122.566C78.6584 122.566 80.1782 121.988 81.3727 120.852C82.5884 119.694 83.2055 118.195 83.2055 116.402C83.2055 115.417 83.0201 114.46 82.6553 113.557C82.2875 112.654 81.7374 111.797 81.017 111.001Z" fill="#E61E25"/>
<path d="M84.8437 98.5918L84.6157 107.379H86.257L86.2996 107.163C86.719 105.081 87.2813 103.418 87.9743 102.23C88.5822 101.184 89.2813 100.522 90.0533 100.257V118.728C90.0533 119.455 89.9408 119.935 89.722 120.16C89.5548 120.327 89.1719 120.537 88.2813 120.585L88.0716 120.597V122.199H97.4604V120.597L97.2507 120.585C96.3602 120.537 95.9741 120.327 95.81 120.16C95.5881 119.938 95.4787 119.455 95.4787 118.728V100.257C96.2507 100.522 96.9468 101.184 97.5577 102.23C98.2507 103.421 98.813 105.081 99.2324 107.163L99.275 107.379H100.916L100.688 98.5918H84.8437Z" fill="#E61E25"/>
<path d="M123.578 100.754C122.727 98.6414 121.46 96.8299 119.813 95.377C119.022 94.6506 118.117 94.0883 117.117 93.7053C116.12 93.3254 115.08 93.1309 114.022 93.1309C112.95 93.1309 111.904 93.3254 110.916 93.7053C109.925 94.0883 109.016 94.6506 108.211 95.374C106.561 96.8572 105.293 98.6809 104.442 100.79C103.591 102.903 103.159 105.289 103.159 107.881C103.159 110.474 103.591 112.857 104.442 114.963C105.293 117.07 106.561 118.893 108.208 120.389C109.013 121.115 109.931 121.683 110.934 122.079C111.937 122.474 112.974 122.671 114.019 122.671C115.062 122.671 116.095 122.471 117.092 122.079C118.089 121.683 119.001 121.115 119.807 120.392C121.442 118.936 122.703 117.118 123.563 114.994C124.42 112.869 124.858 110.477 124.858 107.881C124.861 105.267 124.43 102.866 123.578 100.754ZM114.022 94.9697C115.36 94.9697 116.278 95.8208 116.831 97.5685C117.402 99.3769 117.691 102.872 117.691 107.96C117.691 112.896 117.402 116.316 116.831 118.124C116.278 119.872 115.36 120.723 114.022 120.723C112.685 120.723 111.767 119.872 111.214 118.124C110.643 116.319 110.354 112.899 110.354 107.96C110.354 102.869 110.64 99.3709 111.202 97.5654C111.749 95.8177 112.67 94.9697 114.022 94.9697Z" fill="#E61E25"/>
<path d="M104.867 87.4435C104.867 87.4374 104.864 87.4344 104.864 87.4283C104.718 86.5955 104.272 85.8295 103.785 85.1031C103.56 84.7657 103.302 84.4466 103.038 84.1305C103.001 84.0879 102.472 83.553 102.478 83.5408L100.606 86.2004C101.576 87.0453 102.244 88.0058 102.612 89.0787L102.794 89.8234H95.0742H93.7886L93.8372 88.8994V85.5925C93.2627 86.1183 92.7187 86.6502 92.2597 87.255C92.1594 87.3888 92.0622 87.5225 91.971 87.6593C91.9315 87.717 91.8889 87.7748 91.8494 87.8326C91.819 87.8751 91.7309 87.9693 91.7309 88.018C91.8464 88.6258 91.974 89.2337 92.1807 89.8234L88.9558 89.7535L88.9042 89.4495C88.9042 89.2854 88.9376 89.0514 89.0045 88.7474L89.2537 87.7414L89.8221 86.0332L89.2537 86.5013L88.5516 87.1912L87.6823 88.1426C87.582 88.2702 87.4999 88.41 87.4391 88.562C87.3784 88.714 87.348 88.9723 87.348 89.3401L87.3297 89.7808C87.2963 89.79 87.2355 89.8082 87.1474 89.8355C87.0592 89.8355 86.968 89.8355 86.8799 89.8355L86.6459 89.8507H86.3206H84.6155L83.4301 89.8234L82.3937 89.7535C81.7128 89.6441 81.342 89.5194 81.2751 89.3827L81.4089 89.1334L81.4909 88.9693L81.807 88.3493L82.0077 87.866C82.342 86.9663 82.5092 86.246 82.5092 85.7019L80.2357 88.0727L80.2174 88.5134L80.1506 89.0362C79.9834 89.559 79.6825 89.8203 79.2478 89.8203H78.9652H74.6795H74.2297C73.6948 89.8203 73.2145 89.6684 72.792 89.3644C72.6188 89.2155 72.4729 89.0453 72.3817 88.8508C72.2844 88.641 72.2662 88.4192 72.2966 88.1942C72.327 87.945 72.3999 87.6927 72.4759 87.4496V87.2277L72.5246 86.483L72.5732 85.4648V85.1062L70.5185 87.1183C70.5033 87.3706 70.4912 87.6228 70.476 87.8751C70.4669 88.0483 70.4577 88.2246 70.4486 88.3979C70.4365 88.6015 70.4425 88.8021 70.4152 89.0058C70.3787 89.258 70.2875 89.486 70.1842 89.7231L70.1356 89.8203H65.4001H64.8165V89.641C64.8165 89.0635 64.2968 85.322 63.7557 84.0849C63.1539 82.705 62.5886 81.778 61.2664 81.6868C60.1783 81.6108 57.689 82.3676 56.1541 84.6259C54.9839 86.3432 54.7103 88.6654 55.7802 90.1547C56.9565 91.7899 57.9626 92.0665 59.3121 92.3674C60.0567 92.5346 60.5187 92.641 61.7771 92.641H61.8622C61.8622 92.641 61.1266 94.0604 58.4458 93.8659C55.7711 93.6744 54.2666 92.8537 52.9779 92.0817C52.4551 91.7686 51.291 90.9693 51.291 90.9693C51.0782 91.0057 50.9749 91.0939 50.9749 91.2307C51.0417 91.4708 52.373 93.4221 55.1024 94.6136C57.5765 95.6956 59.3364 95.6835 61.3424 95.109C63.2421 94.5649 63.8348 93.6835 64.4214 92.647H65.4062H69.2724L70.5246 90.7747C70.7465 91.4009 71.0747 91.8689 71.5094 92.179C71.944 92.492 72.4607 92.647 73.0625 92.647H74.6826H77.4789C77.7129 92.6197 78.6947 92.5376 78.953 92.3978L79.3694 92.1091L79.7038 91.8325L79.9044 91.6531L80.0867 92.1638C80.2995 92.4859 80.5031 92.647 80.7037 92.647H86.6003L87.2173 92.0969L87.4179 91.9328C87.5607 92.0148 87.6549 92.1243 87.7218 92.258C87.7948 92.4008 87.8586 92.5255 87.968 92.6501H92.5789L93.0135 91.7686L93.2962 92.6501H95.0682H103.873C104.357 91.2063 104.91 89.8416 104.919 88.3128C104.928 88.024 104.916 87.7322 104.867 87.4435ZM61.2482 89.9845C59.8652 90.0149 58.7194 89.9024 57.8562 89.3675C56.61 88.5924 55.8441 86.9967 56.9656 85.48C57.7528 84.4162 58.9382 84.2308 59.54 84.2308C61.3303 84.2278 61.771 85.6867 62.2056 86.8812C62.6342 88.0575 62.5947 89.8659 62.5947 89.8659C62.5947 89.8659 61.9685 89.9693 61.2482 89.9845Z" fill="#E61E25"/>
<path d="M101.387 82.7269L99.0561 81.4746L96.6792 82.6965L99.0378 83.9487L101.387 82.7269Z" fill="#E61E25"/>
<path d="M76.026 83.4116L73.6947 82.1562L71.8893 83.0833L70.1629 82.1562L67.786 83.3781L70.1446 84.6304L71.9318 83.7033L73.6765 84.6304L76.026 83.4116Z" fill="#E61E25"/>
<path fill-rule="evenodd" clip-rule="evenodd" d="M89.731 59.2444L63.7346 25.084L63.6161 25.0566C63.537 25.3727 60.3152 30.327 59.8715 30.9805C59.4368 31.6279 56.1633 36.6005 56.1633 36.9439V37.0108C56.1633 37.5974 56.5737 38.9469 56.7196 39.5761C56.9232 40.4332 57.1238 41.3177 57.2636 42.1536C57.5311 43.7888 58.0873 45.5182 58.4034 47.1869C58.7013 48.8221 59.1177 50.6823 59.5067 52.2415C59.9292 53.9193 60.224 55.6123 60.6404 57.2809C61.4459 60.6152 62.0204 64.1258 62.8866 67.4388C63.3121 69.0557 63.5249 70.928 63.993 72.5025C64.2057 73.159 65.075 76.9887 65.0872 77.5814L75.9076 76.469L71.9198 62.6699L70.9594 59.4085L70.8408 59.1866L65.5248 40.7767L82.5154 64.4479L97.3905 54.3843L93.3632 31.0717L82.3908 35.64L89.731 59.2444Z" fill="#E61E25"/>
<path fill-rule="evenodd" clip-rule="evenodd" d="M65.4944 25.6309C65.4853 25.8436 75.4577 38.9771 76.4699 40.2871C78.3482 42.7217 80.1111 45.1594 81.9621 47.6C82.6491 48.4967 87.187 54.6668 87.5304 54.9099L81.257 35.2447L90.9225 31.2144L90.6124 24.33L76.2905 21.2936L76.0595 24.7707V26.2145C76.0595 27.6369 76.2632 29.3177 76.5428 30.5244C76.71 31.2873 76.8042 31.7463 77.017 32.4393C77.1902 32.9985 77.5276 33.6368 77.6644 34.1869C76.6127 33.494 75.5094 31.3724 75.0109 30.0138C74.4973 28.6156 74.0079 26.0443 74.0079 24.1963L73.9957 20.8164L66.5856 19.2754L65.4944 25.6309Z" fill="#00944C"/>
<path fill-rule="evenodd" clip-rule="evenodd" d="M75.096 55.6307C74.2602 54.4454 68.1843 45.7069 67.7922 45.4121L75.2723 70.98L98.4421 70.9891L94.971 57.3055C94.3023 57.3572 82.8558 65.8494 82.412 65.8494C82.3147 65.8463 75.7404 56.5335 75.096 55.6307Z" fill="#00944C"/>
<path fill-rule="evenodd" clip-rule="evenodd" d="M58.6404 52.2988C58.5492 52.3596 55.5553 60.9491 55.2544 61.8305C54.7377 63.3807 54.0356 64.9885 53.4399 66.487C52.8989 67.8608 52.2211 69.7331 51.5585 70.9854H62.8136L58.6404 52.2988Z" fill="#00944C"/>
<path fill-rule="evenodd" clip-rule="evenodd" d="M74.1537 20.2001L76.5001 20.6378C76.5974 19.4585 77.5761 17.0026 78.0715 16.1212C78.801 14.8081 79.6794 13.5984 81.4362 13.2914C83.1231 12.9905 84.4939 14.6865 85.0866 15.6683C85.4969 16.3278 85.7735 16.9722 86.0957 17.7169C86.2993 18.191 86.7188 19.8293 86.8738 20.0573C86.8738 18.726 85.579 15.3339 85.0167 14.4373C84.2021 13.106 82.8009 11.2246 80.728 11.2246H80.6642C78.5123 11.2246 76.9348 13.0544 76.1263 14.413C75.6491 15.2154 75.2388 16.0877 74.9348 17.0756C74.7859 17.5497 74.6218 18.0026 74.4759 18.5801C74.3999 18.9327 74.2479 19.9873 74.1537 20.2001Z" fill="#E61E25"/>
<path d="M34.492 128.988H36.0147L39.2335 136.943H37.5041L36.8171 135.171H33.6409L32.954 136.943H31.2701L34.492 128.988ZM36.2275 133.636L35.2306 131.076L34.2336 133.636H36.2275Z" fill="#151511"/>
<path d="M39.969 128.705H41.5981V136.939H39.969V128.705Z" fill="#151511"/>
<path d="M42.8899 128.705H44.519V136.939H42.8899V128.705Z" fill="#151511"/>
<path d="M47.7682 135.225V132.359H47.0813V130.891H47.7682V129.344H49.3974V130.891H50.7499V132.359H49.3974V134.942C49.3974 135.338 49.5615 135.529 49.9232 135.529C50.2211 135.529 50.4916 135.45 50.7256 135.316V136.693C50.3821 136.909 49.987 137.043 49.4399 137.043C48.443 137.043 47.7682 136.626 47.7682 135.225Z" fill="#151511"/>
<path d="M51.6315 128.705H53.2606V131.751C53.6375 131.24 54.1238 130.778 54.9475 130.778C56.1785 130.778 56.8988 131.635 56.8988 133.024V136.939H55.2697V133.565C55.2697 132.754 54.905 132.337 54.2819 132.337C53.6618 132.337 53.2637 132.754 53.2637 133.565V136.939H51.6345V128.705H51.6315Z" fill="#151511"/>
<path d="M57.6494 135.203V135.179C57.6494 133.86 58.6038 133.252 59.9655 133.252C60.546 133.252 60.9655 133.352 61.3697 133.501V133.398C61.3697 132.686 60.9533 132.291 60.1387 132.291C59.5156 132.291 59.0719 132.416 58.5491 132.619L58.1418 131.309C58.774 131.018 59.3941 130.826 60.3728 130.826C61.2603 130.826 61.9046 131.075 62.315 131.504C62.7435 131.954 62.9381 132.619 62.9381 133.431V136.939H61.3606V136.285C60.9655 136.747 60.4184 137.051 59.622 137.051C58.54 137.054 57.6494 136.397 57.6494 135.203ZM61.394 134.808V134.501C61.1144 134.367 60.7497 134.276 60.3545 134.276C59.6555 134.276 59.2299 134.568 59.2299 135.109V135.133C59.2299 135.595 59.5947 135.866 60.1205 135.866C60.8773 135.869 61.394 135.428 61.394 134.808Z" fill="#151511"/>
<path d="M64.239 135.225V132.359H63.5491V130.891H64.239V129.344H65.8651V130.891H67.2177V132.359H65.8651V134.942C65.8651 135.338 66.0262 135.529 66.391 135.529C66.6949 135.529 66.9593 135.45 67.1934 135.316V136.693C66.8499 136.909 66.4548 137.043 65.9077 137.043C64.9168 137.043 64.239 136.626 64.239 135.225Z" fill="#151511"/>
<path d="M70.242 138.361L70.7922 137.12C71.0049 137.257 71.2724 137.358 71.4882 137.358C71.7678 137.358 71.9168 137.266 72.0566 136.965L69.8074 130.893H71.5307L72.8407 135.011L74.096 130.893H75.7921L73.5824 137.087C73.1386 138.318 72.6675 138.78 71.6918 138.78C71.1022 138.777 70.6615 138.622 70.242 138.361Z" fill="#151511"/>
<path d="M75.8315 133.951V133.93C75.8315 132.192 77.1628 130.781 78.9561 130.781C80.7372 130.781 82.0564 132.17 82.0564 133.906V133.93C82.0564 135.666 80.722 137.076 78.9348 137.076C77.1537 137.076 75.8315 135.69 75.8315 133.951ZM80.4454 133.951V133.93C80.4454 133.037 79.8345 132.258 78.9348 132.258C78.0017 132.258 77.4425 133.015 77.4425 133.906V133.93C77.4425 134.824 78.0564 135.599 78.9561 135.599C79.8892 135.599 80.4454 134.842 80.4454 133.951Z" fill="#151511"/>
<path d="M82.8708 134.807V130.893H84.5V134.266C84.5 135.078 84.8647 135.497 85.4848 135.497C86.1079 135.497 86.503 135.078 86.503 134.266V130.893H88.1352V136.941H86.503V136.084C86.1292 136.592 85.6459 137.054 84.8222 137.054C83.5912 137.054 82.8708 136.196 82.8708 134.807Z" fill="#151511"/>
<path d="M91.2689 130.894H92.8981V131.754C93.275 131.243 93.7582 130.781 94.5819 130.781C95.8159 130.781 96.5363 131.638 96.5363 133.027V136.942H94.9041V133.568C94.9041 132.757 94.5394 132.34 93.9163 132.34C93.2932 132.34 92.895 132.757 92.895 133.568V136.942H91.2659V130.894H91.2689Z" fill="#151511"/>
<path d="M97.3508 133.951V133.93C97.3508 132.204 98.521 130.781 100.193 130.781C102.117 130.781 102.998 132.35 102.998 134.064C102.998 134.201 102.986 134.359 102.974 134.517H98.9709C99.1319 135.298 99.6486 135.702 100.378 135.702C100.928 135.702 101.323 135.52 101.773 135.082L102.709 135.951C102.171 136.65 101.402 137.076 100.357 137.076C98.6274 137.076 97.3508 135.802 97.3508 133.951ZM101.408 133.444C101.311 132.678 100.886 132.161 100.193 132.161C99.518 132.161 99.0772 132.666 98.9496 133.444H101.408Z" fill="#151511"/>
<path d="M103.606 133.951V133.93C103.606 132.204 104.776 130.781 106.448 130.781C108.369 130.781 109.25 132.35 109.25 134.064C109.25 134.201 109.241 134.359 109.232 134.517H105.226C105.387 135.298 105.904 135.702 106.633 135.702C107.18 135.702 107.576 135.52 108.028 135.082L108.965 135.951C108.427 136.65 107.655 137.076 106.612 137.076C104.886 137.076 103.606 135.802 103.606 133.951ZM107.664 133.444C107.57 132.678 107.138 132.161 106.451 132.161C105.773 132.161 105.336 132.666 105.208 133.444H107.664Z" fill="#151511"/>
<path d="M109.882 133.931V133.906C109.882 131.888 111.141 130.782 112.499 130.782C113.369 130.782 113.907 131.198 114.293 131.685V128.709H115.925V136.943H114.293V136.074C113.895 136.639 113.353 137.055 112.499 137.055C111.159 137.055 109.882 135.949 109.882 133.931ZM114.317 133.931V133.906C114.317 132.903 113.685 132.235 112.919 132.235C112.159 132.235 111.515 132.888 111.515 133.906V133.931C111.515 134.934 112.159 135.599 112.919 135.599C113.682 135.599 114.317 134.934 114.317 133.931Z" fill="#151511"/>
<path d="M116.995 135.137H118.73V136.939H116.995V135.137Z" fill="#151511"/>
</svg>
