<svg width="238" height="238" viewBox="0 0 238 238" fill="none" xmlns="http://www.w3.org/2000/svg">
<circle cx="119" cy="119" r="119" fill="#40AA54" fill-opacity="0.1"/>
<path fill-rule="evenodd" clip-rule="evenodd" d="M176.644 156.754L118.922 139.301L61.2002 156.754L118.922 176.577L176.644 156.754Z" fill="#D8D8D8"/>
<path fill-rule="evenodd" clip-rule="evenodd" d="M118.922 98.4087L132.469 96.8711L174.774 109.546L159.315 110.626L136.043 107.26L118.922 98.4087Z" fill="#66D47A"/>
<path fill-rule="evenodd" clip-rule="evenodd" d="M78.5288 110.626L118.922 124.506L126.859 147.944L118.922 170.176L78.5288 156.296V110.626Z" fill="#66D47A"/>
<path fill-rule="evenodd" clip-rule="evenodd" d="M159.315 110.626L118.922 124.506V170.176L159.315 156.296V110.626Z" fill="#40AA54"/>
<path fill-rule="evenodd" clip-rule="evenodd" d="M78.5288 110.626L67.2671 123.799L106.87 138.593L118.922 124.506L78.5288 110.626Z" fill="#66D47A"/>
<path fill-rule="evenodd" clip-rule="evenodd" d="M78.5288 131.321L106.87 141.918L118.922 124.506L106.87 138.593L78.5288 127.997V131.321Z" fill="#40AA54"/>
<path fill-rule="evenodd" clip-rule="evenodd" d="M159.315 110.626L170.577 123.799L130.973 138.593L118.922 124.506L159.315 110.626Z" fill="#66D47A"/>
<path fill-rule="evenodd" clip-rule="evenodd" d="M159.315 131.321L130.973 141.918L118.922 124.506L130.973 138.593L159.315 127.997V131.321Z" fill="#2E9041"/>
<path fill-rule="evenodd" clip-rule="evenodd" d="M118.921 98.4106L105.374 96.873L63.0693 109.548L78.5283 110.628L101.8 107.262L118.921 98.4106Z" fill="#66D47A"/>
<path fill-rule="evenodd" clip-rule="evenodd" d="M159.314 110.626L118.922 98.4502L78.5288 110.626L118.922 124.506L159.314 110.626Z" fill="#2E8F41"/>
<path fill-rule="evenodd" clip-rule="evenodd" d="M116.97 71.066C110.986 68.4063 108.285 65.2481 103.381 62.3391C100.971 61.5496 98.7682 62.4222 97.854 64.4585C96.7735 68.4895 92.7841 75.9696 99.0176 77.1747H116.928L116.97 71.066Z" fill="#BA7331"/>
<path fill-rule="evenodd" clip-rule="evenodd" d="M116.971 71.066C110.987 68.4063 108.286 65.2481 103.382 62.3391C100.972 61.5496 98.7697 62.4222 97.8555 64.4585C97.5646 65.4974 97.0659 66.8272 96.6503 68.157C95.8192 71.3568 95.8192 74.432 99.6008 75.18H116.93L116.971 71.066Z" fill="#F7CE7F"/>
<path fill-rule="evenodd" clip-rule="evenodd" d="M122.997 71.066C128.981 68.4063 131.682 65.2481 136.586 62.3391C138.996 61.5496 141.199 62.4222 142.113 64.4585C143.194 68.4895 147.183 75.9696 140.95 77.1747H123.08L122.997 71.066Z" fill="#BA7331"/>
<path fill-rule="evenodd" clip-rule="evenodd" d="M122.997 71.066C128.981 68.4063 131.682 65.2481 136.586 62.3391C138.996 61.5496 141.199 62.4222 142.113 64.4585C142.404 65.4974 142.903 66.8272 143.318 68.157C144.149 71.3568 144.149 74.432 140.326 75.18H122.997V71.066Z" fill="#F7CE7F"/>
<path fill-rule="evenodd" clip-rule="evenodd" d="M116.638 77.2169H123.412V71.0666C123.412 70.3601 122.83 69.7783 122.123 69.7783H117.885C117.178 69.7783 116.596 70.3601 116.596 71.0666L116.638 77.2169Z" fill="#E5BB57"/>
<path fill-rule="evenodd" clip-rule="evenodd" d="M115.641 70.4428C115.641 70.4428 115.599 72.6037 115.391 72.6453C115.184 72.6868 113.854 72.1051 113.854 72.1051L110.072 70.1104C111.527 71.4402 113.106 72.8531 115.724 73.892L115.89 75.5958L116.638 76.51V70.8999L115.641 70.4428Z" fill="#BA7331"/>
<path fill-rule="evenodd" clip-rule="evenodd" d="M124.451 70.4428C124.451 70.4428 124.493 72.6037 124.7 72.6453C124.908 72.6868 126.238 72.1051 126.238 72.1051L130.02 70.1104C128.565 71.4402 126.986 72.8531 124.368 73.892L124.202 75.5958L123.454 76.51V70.8999L124.451 70.4428Z" fill="#BA7331"/>
<path fill-rule="evenodd" clip-rule="evenodd" d="M79.9436 87.8127L120.045 88.5607L160.147 87.8127V82.6182H120.045H79.9436V87.8127Z" fill="#2E9041"/>
<path fill-rule="evenodd" clip-rule="evenodd" d="M79.9441 78.5871L120.046 73.3926V82.6181L79.9441 87.8126V78.5871Z" fill="#66D47A"/>
<path fill-rule="evenodd" clip-rule="evenodd" d="M93.8235 76.7998L102.343 75.6777V84.9032L93.8235 86.0253V76.7998Z" fill="#F7CE7F"/>
<path fill-rule="evenodd" clip-rule="evenodd" d="M160.147 78.5871L120.046 73.3926V82.6181L160.147 87.8126V78.5871Z" fill="#40AA54"/>
<path fill-rule="evenodd" clip-rule="evenodd" d="M146.267 76.7998L137.748 75.6777V84.9032L146.267 86.0253V76.7998Z" fill="#F7CE7F"/>
</svg>
