<svg width="126" height="126" viewBox="0 0 126 126" fill="none" xmlns="http://www.w3.org/2000/svg">
<g clip-path="url(#clip0)">
<path d="M123.375 68.2499C124.826 68.2499 126 67.0758 126 65.6248V60.3749C126 58.9239 124.826 57.7498 123.375 57.7498H109.94C107.51 35.8876 90.1146 18.4898 68.2499 16.0593V2.62508C68.2499 1.17411 67.076 0 65.6251 0H60.3752C58.9242 0 57.7501 1.17411 57.7501 2.62508V16.0596C48.6572 17.0703 40.4379 20.7853 33.6477 26.2235L8.1932 0.769043C7.16773 -0.255937 5.5061 -0.255937 4.48063 0.769043L0.769289 4.48063C-0.256184 5.50561 -0.256184 7.16773 0.769289 8.19295L26.224 33.6477C20.7858 40.4379 17.0705 48.6577 16.0598 57.7501H2.62508C1.17411 57.7501 0 58.9242 0 60.3749V65.6248C0 67.0758 1.17411 68.2499 2.62508 68.2499H16.0598C18.49 90.1122 35.8854 107.51 57.7501 109.94V123.375C57.7501 124.826 58.9242 126 60.3752 126H65.6251C67.076 126 68.2502 124.826 68.2502 123.375V109.94C77.3436 108.93 85.5626 105.215 92.3526 99.7763L117.807 125.231C118.833 126.256 120.494 126.256 121.52 125.231L125.231 121.519C126.256 120.494 126.256 118.832 125.231 117.807L99.7763 92.3523C105.215 85.5616 108.929 77.3423 109.94 68.2499H123.375ZM63 99.7499C42.7384 99.7499 26.2501 83.2641 26.2501 63C26.2501 54.7583 29.012 47.1715 33.6149 41.0383L45.0012 52.4246C43.1383 55.5345 42.0001 59.1157 42.0001 63C42.0001 74.5792 51.4183 83.9999 63 83.9999C66.8846 83.9999 70.4655 82.8617 73.5754 80.9991L84.9612 92.3848C78.8275 96.9878 71.2409 99.7499 63 99.7499ZM92.3856 84.9614L80.9993 73.5751C82.8622 70.465 84.0002 66.8841 84.0002 63.0002C84.0002 51.421 74.5819 42.0003 63.0002 42.0003C59.1157 42.0003 55.5347 43.1385 52.4249 45.0012L41.0391 33.6152C47.1722 29.0122 54.7591 26.2503 63 26.2503C83.2616 26.2503 99.7499 42.7361 99.7499 63.0002C99.7499 71.2417 96.9883 78.8283 92.3856 84.9614Z" fill="url(#paint0_linear)"/>
</g>
<defs>
<linearGradient id="paint0_linear" x1="63" y1="0" x2="63" y2="126" gradientUnits="userSpaceOnUse">
<stop stop-color="#00C113"/>
<stop offset="0.284375" stop-color="#21E261"/>
<stop offset="0.633333" stop-color="#30C699"/>
<stop offset="1" stop-color="#00C5AD"/>
</linearGradient>
<clipPath id="clip0">
<rect width="126" height="126" fill="white"/>
</clipPath>
</defs>
</svg>
