<svg width="126" height="126" viewBox="0 0 126 126" fill="none" xmlns="http://www.w3.org/2000/svg">
<path fill-rule="evenodd" clip-rule="evenodd" d="M106.216 9.89431C106.694 10.0925 107.128 10.3829 107.494 10.749C107.86 11.1147 108.15 11.5489 108.348 12.0269C108.547 12.5049 108.649 13.0173 108.649 13.5348C108.649 14.0522 108.547 14.5646 108.348 15.0426C108.15 15.5206 107.86 15.9549 107.494 16.3205L27.5625 96.2321C26.8243 96.9643 25.8264 97.3748 24.7866 97.374C24.0102 97.3707 23.2521 97.138 22.6077 96.7051C21.9632 96.2723 21.4611 95.6585 21.1644 94.9411C20.8677 94.2236 20.7898 93.4345 20.9404 92.6729C21.0909 91.9112 21.4633 91.2111 22.0106 90.6605L32.7009 79.9702C25.5741 68.0002 22.0697 58.5502 22.0697 51.1871C21.6563 13.6234 66.4847 -7.00914 92.0784 20.5927L101.922 10.749C102.288 10.3829 102.722 10.0925 103.2 9.89431C103.678 9.69616 104.191 9.59417 104.708 9.59417C105.225 9.59417 105.738 9.69616 106.216 9.89431ZM56.7 56.0302C44.4544 45.9699 61.3266 29.1371 71.3869 41.3434L56.7 56.0302ZM94.1229 35.7821C94.5693 34.8412 95.3703 34.1155 96.3506 33.7639C102.795 31.9503 103.476 43.4905 103.829 49.4841C103.871 50.1921 103.908 50.8227 103.95 51.3448C103.95 74.3398 67.5084 115.25 65.9531 116.983C65.5836 117.402 65.1292 117.737 64.62 117.967C64.1109 118.197 63.5586 118.316 63 118.316C62.4414 118.316 61.8891 118.197 61.38 117.967C60.8708 117.737 60.4164 117.402 60.0469 116.983C53.3611 109.366 47.0661 101.416 41.1862 93.1611C40.8863 92.7396 40.6724 92.2633 40.5566 91.7592C40.4408 91.2551 40.4254 90.7331 40.5113 90.223C40.5972 89.713 40.7828 89.2248 41.0573 88.7865C41.3319 88.3481 41.6901 87.9682 42.1116 87.6683C42.533 87.3683 43.0093 87.1544 43.5134 87.0386C44.0176 86.9228 44.5395 86.9074 45.0496 86.9933C45.5597 87.0792 46.0478 87.2648 46.4861 87.5394C46.9245 87.8139 47.3045 88.1721 47.6044 88.5936C53.55 96.9411 59.5547 104.245 63 108.281C64.4681 106.393 66.0592 104.396 67.7225 102.309C82.276 84.044 102.361 58.8375 93.9684 38.7842C93.6209 37.8025 93.6764 36.723 94.1229 35.7821Z" fill="url(#paint0_linear)"/>
<defs>
<linearGradient id="paint0_linear" x1="64.7571" y1="7.88672" x2="64.7571" y2="118.316" gradientUnits="userSpaceOnUse">
<stop stop-color="#00C113"/>
<stop offset="0.284375" stop-color="#21E261"/>
<stop offset="0.633333" stop-color="#30C699"/>
<stop offset="1" stop-color="#00C5AD"/>
</linearGradient>
</defs>
</svg>
