<svg width="158" height="158" viewBox="0 0 158 158" fill="none" xmlns="http://www.w3.org/2000/svg">
<circle cx="79" cy="79" r="79" fill="#40AA54" fill-opacity="0.1"/>
<path d="M55.6685 103.889C58.7536 103.889 61.2711 106.392 61.2711 109.491C61.2711 112.576 58.7682 115.094 55.6685 115.094C52.5835 115.094 50.0659 112.591 50.0659 109.491C50.0659 106.392 52.5689 103.889 55.6685 103.889Z" fill="#2F2F57"/>
<path d="M55.668 106.916C57.0942 106.916 58.2438 108.066 58.2438 109.492C58.2438 110.918 57.0942 112.068 55.668 112.068C54.2419 112.068 53.0923 110.918 53.0923 109.492C53.0923 108.066 54.2419 106.916 55.668 106.916Z" fill="#EE9849"/>
<path d="M100.316 103.889C103.401 103.889 105.918 106.392 105.918 109.491C105.918 112.576 103.415 115.094 100.316 115.094C97.2305 115.094 94.713 112.591 94.713 109.491C94.713 106.392 97.216 103.889 100.316 103.889Z" fill="#2F2F57"/>
<path d="M100.313 106.916C101.74 106.916 102.889 108.066 102.889 109.492C102.889 110.918 101.74 112.068 100.313 112.068C98.8873 112.068 97.7377 110.918 97.7377 109.492C97.7377 108.066 98.8873 106.916 100.313 106.916Z" fill="#EE9849"/>
<mask id="path-6-outside-1" maskUnits="userSpaceOnUse" x="43.2916" y="43.0283" width="73" height="46" fill="black">
<rect fill="white" x="43.2916" y="43.0283" width="73" height="46"/>
<path d="M44.5213 44.2965C44.8414 43.9618 45.3653 43.9327 45.7146 44.2528L52.8743 50.9032C52.9761 51.0051 53.0635 51.1215 53.1071 51.267L54.0239 54.1338L114.154 56.986C114.372 57.0006 114.59 57.1024 114.736 57.2625C114.881 57.4226 114.969 57.6409 114.954 57.8737L113.717 83.18C113.703 83.6021 113.368 83.9513 112.946 83.9804L63.5556 87.5312C63.5411 87.5312 63.512 87.5312 63.4974 87.5312C63.1336 87.5312 62.8135 87.2983 62.697 86.9491L52.5832 55.2106C52.5832 55.1961 52.5687 55.1815 52.5687 55.167L51.55 51.9801L44.565 45.4898C44.2157 45.1696 44.2011 44.6312 44.5213 44.2965ZM61.3146 77.0972L66.8299 76.8789L64.5161 67.5655L58.2586 67.5073L61.3146 77.0972ZM68.3288 76.8353L74.5426 76.6024L72.447 67.6383L66.0441 67.58L68.3288 76.8353ZM76.4926 84.9118L74.8773 78.0286L68.678 78.2614L70.4388 85.3338L76.4926 84.9118ZM83.6668 84.3879L82.4299 77.7375L76.3616 77.9703L77.9623 84.7953L83.6668 84.3879ZM91.5832 83.8203L90.6228 77.4319L83.9142 77.6939L85.1366 84.286L91.5832 83.8203ZM98.1899 83.3401L97.7243 77.1554L92.078 77.3737L93.0384 83.7039L98.1899 83.3401ZM106.194 82.758L105.815 76.8498L99.1795 77.0972L99.6452 83.2237L106.194 82.758ZM112.757 67.973L106.688 67.9148L107.169 75.3364L112.407 75.1327L112.757 67.973ZM105.233 67.9148L98.481 67.8565L99.0631 75.6565L105.713 75.3946L105.233 67.9148ZM97.7243 57.8737L98.3646 66.4013L105.131 66.4595L104.593 58.2084L97.7243 57.8737ZM89.0657 57.4662L90.4045 66.3286L96.8948 66.3868L96.2545 57.8009L89.0657 57.4662ZM80.0724 57.0442L81.7896 66.2703L88.9493 66.3286L87.5959 57.408L80.0724 57.0442ZM71.3556 56.6222L73.5967 66.183L80.3052 66.2412L78.5881 56.9569L71.3556 56.6222ZM89.153 67.7838L82.0515 67.7256L83.6377 76.2532L90.4045 75.9912L89.153 67.7838ZM91.8597 75.933L97.6078 75.7147L97.0112 67.842L90.6228 67.7838L91.8597 75.933ZM80.5672 67.711L73.9314 67.6528L76.0123 76.5442L82.1534 76.3114L80.5672 67.711ZM72.0978 66.183L69.8422 56.564L63.2209 56.2439L65.6657 66.1248L72.0978 66.183ZM106.063 58.2666L106.601 66.4595L112.844 66.5177L113.222 58.6013L106.063 58.2666ZM112.349 76.6024L107.271 76.7916L107.649 82.6416L112.073 82.3215L112.349 76.6024ZM64.0941 85.814L68.9691 85.4647L67.2082 78.3342L61.7802 78.5379L64.0941 85.814ZM57.8075 66.0521L64.1668 66.1103L61.7075 56.1711L54.5478 55.8364L57.8075 66.0521Z"/>
</mask>
<path d="M44.5213 44.2965C44.8414 43.9618 45.3653 43.9327 45.7146 44.2528L52.8743 50.9032C52.9761 51.0051 53.0635 51.1215 53.1071 51.267L54.0239 54.1338L114.154 56.986C114.372 57.0006 114.59 57.1024 114.736 57.2625C114.881 57.4226 114.969 57.6409 114.954 57.8737L113.717 83.18C113.703 83.6021 113.368 83.9513 112.946 83.9804L63.5556 87.5312C63.5411 87.5312 63.512 87.5312 63.4974 87.5312C63.1336 87.5312 62.8135 87.2983 62.697 86.9491L52.5832 55.2106C52.5832 55.1961 52.5687 55.1815 52.5687 55.167L51.55 51.9801L44.565 45.4898C44.2157 45.1696 44.2011 44.6312 44.5213 44.2965ZM61.3146 77.0972L66.8299 76.8789L64.5161 67.5655L58.2586 67.5073L61.3146 77.0972ZM68.3288 76.8353L74.5426 76.6024L72.447 67.6383L66.0441 67.58L68.3288 76.8353ZM76.4926 84.9118L74.8773 78.0286L68.678 78.2614L70.4388 85.3338L76.4926 84.9118ZM83.6668 84.3879L82.4299 77.7375L76.3616 77.9703L77.9623 84.7953L83.6668 84.3879ZM91.5832 83.8203L90.6228 77.4319L83.9142 77.6939L85.1366 84.286L91.5832 83.8203ZM98.1899 83.3401L97.7243 77.1554L92.078 77.3737L93.0384 83.7039L98.1899 83.3401ZM106.194 82.758L105.815 76.8498L99.1795 77.0972L99.6452 83.2237L106.194 82.758ZM112.757 67.973L106.688 67.9148L107.169 75.3364L112.407 75.1327L112.757 67.973ZM105.233 67.9148L98.481 67.8565L99.0631 75.6565L105.713 75.3946L105.233 67.9148ZM97.7243 57.8737L98.3646 66.4013L105.131 66.4595L104.593 58.2084L97.7243 57.8737ZM89.0657 57.4662L90.4045 66.3286L96.8948 66.3868L96.2545 57.8009L89.0657 57.4662ZM80.0724 57.0442L81.7896 66.2703L88.9493 66.3286L87.5959 57.408L80.0724 57.0442ZM71.3556 56.6222L73.5967 66.183L80.3052 66.2412L78.5881 56.9569L71.3556 56.6222ZM89.153 67.7838L82.0515 67.7256L83.6377 76.2532L90.4045 75.9912L89.153 67.7838ZM91.8597 75.933L97.6078 75.7147L97.0112 67.842L90.6228 67.7838L91.8597 75.933ZM80.5672 67.711L73.9314 67.6528L76.0123 76.5442L82.1534 76.3114L80.5672 67.711ZM72.0978 66.183L69.8422 56.564L63.2209 56.2439L65.6657 66.1248L72.0978 66.183ZM106.063 58.2666L106.601 66.4595L112.844 66.5177L113.222 58.6013L106.063 58.2666ZM112.349 76.6024L107.271 76.7916L107.649 82.6416L112.073 82.3215L112.349 76.6024ZM64.0941 85.814L68.9691 85.4647L67.2082 78.3342L61.7802 78.5379L64.0941 85.814ZM57.8075 66.0521L64.1668 66.1103L61.7075 56.1711L54.5478 55.8364L57.8075 66.0521Z" fill="#16162E"/>
<path d="M44.5213 44.2965C44.8414 43.9618 45.3653 43.9327 45.7146 44.2528L52.8743 50.9032C52.9761 51.0051 53.0635 51.1215 53.1071 51.267L54.0239 54.1338L114.154 56.986C114.372 57.0006 114.59 57.1024 114.736 57.2625C114.881 57.4226 114.969 57.6409 114.954 57.8737L113.717 83.18C113.703 83.6021 113.368 83.9513 112.946 83.9804L63.5556 87.5312C63.5411 87.5312 63.512 87.5312 63.4974 87.5312C63.1336 87.5312 62.8135 87.2983 62.697 86.9491L52.5832 55.2106C52.5832 55.1961 52.5687 55.1815 52.5687 55.167L51.55 51.9801L44.565 45.4898C44.2157 45.1696 44.2011 44.6312 44.5213 44.2965ZM61.3146 77.0972L66.8299 76.8789L64.5161 67.5655L58.2586 67.5073L61.3146 77.0972ZM68.3288 76.8353L74.5426 76.6024L72.447 67.6383L66.0441 67.58L68.3288 76.8353ZM76.4926 84.9118L74.8773 78.0286L68.678 78.2614L70.4388 85.3338L76.4926 84.9118ZM83.6668 84.3879L82.4299 77.7375L76.3616 77.9703L77.9623 84.7953L83.6668 84.3879ZM91.5832 83.8203L90.6228 77.4319L83.9142 77.6939L85.1366 84.286L91.5832 83.8203ZM98.1899 83.3401L97.7243 77.1554L92.078 77.3737L93.0384 83.7039L98.1899 83.3401ZM106.194 82.758L105.815 76.8498L99.1795 77.0972L99.6452 83.2237L106.194 82.758ZM112.757 67.973L106.688 67.9148L107.169 75.3364L112.407 75.1327L112.757 67.973ZM105.233 67.9148L98.481 67.8565L99.0631 75.6565L105.713 75.3946L105.233 67.9148ZM97.7243 57.8737L98.3646 66.4013L105.131 66.4595L104.593 58.2084L97.7243 57.8737ZM89.0657 57.4662L90.4045 66.3286L96.8948 66.3868L96.2545 57.8009L89.0657 57.4662ZM80.0724 57.0442L81.7896 66.2703L88.9493 66.3286L87.5959 57.408L80.0724 57.0442ZM71.3556 56.6222L73.5967 66.183L80.3052 66.2412L78.5881 56.9569L71.3556 56.6222ZM89.153 67.7838L82.0515 67.7256L83.6377 76.2532L90.4045 75.9912L89.153 67.7838ZM91.8597 75.933L97.6078 75.7147L97.0112 67.842L90.6228 67.7838L91.8597 75.933ZM80.5672 67.711L73.9314 67.6528L76.0123 76.5442L82.1534 76.3114L80.5672 67.711ZM72.0978 66.183L69.8422 56.564L63.2209 56.2439L65.6657 66.1248L72.0978 66.183ZM106.063 58.2666L106.601 66.4595L112.844 66.5177L113.222 58.6013L106.063 58.2666ZM112.349 76.6024L107.271 76.7916L107.649 82.6416L112.073 82.3215L112.349 76.6024ZM64.0941 85.814L68.9691 85.4647L67.2082 78.3342L61.7802 78.5379L64.0941 85.814ZM57.8075 66.0521L64.1668 66.1103L61.7075 56.1711L54.5478 55.8364L57.8075 66.0521Z" stroke="black" stroke-width="1.12857" mask="url(#path-6-outside-1)"/>
<path d="M47.5623 48.1384C47.8388 48.1384 48.1152 48.022 48.319 47.8037C48.6828 47.3817 48.6537 46.7559 48.2317 46.3776L44.5645 43.1324C44.1425 42.7686 43.5167 42.8123 43.1384 43.2197C42.7746 43.6417 42.8037 44.2675 43.2257 44.6458L46.8929 47.8764C47.082 48.0511 47.3294 48.1384 47.5623 48.1384Z" fill="#EE9849"/>
<path d="M112.872 84.1273C113.41 84.1273 113.847 83.7053 113.876 83.1669L115.113 57.8606C115.142 57.3076 114.705 56.8274 114.152 56.7983C113.599 56.7691 113.119 57.2057 113.09 57.7587L111.853 83.065C111.824 83.618 112.261 84.0982 112.814 84.1273C112.828 84.1273 112.857 84.1273 112.872 84.1273Z" fill="#EE9849"/>
<path d="M99.8745 103.38L99.6247 109.335L99.6246 109.337C99.6142 109.65 99.7668 109.926 100.011 110.053C100.134 110.117 100.28 110.142 100.427 110.105C100.576 110.068 100.701 109.974 100.793 109.842L105.218 103.49L106.022 103.501L112.999 106.232C113.143 106.292 113.283 106.311 113.411 106.311C113.858 106.311 114.285 106.039 114.46 105.593L114.46 105.593L114.462 105.587C114.673 105.012 114.404 104.37 113.821 104.137L113.819 104.136L107.613 101.718L109.005 97.8164C109.005 97.8159 109.005 97.8155 109.005 97.8151C109.22 97.2272 108.905 96.589 108.328 96.3775C107.739 96.1618 107.1 96.4771 106.889 97.0546L106.888 97.0572L105.399 101.246L57.769 100.382V92.8032L64.1838 87.5482C64.675 87.154 64.7253 86.4519 64.343 85.974C63.949 85.4815 63.2461 85.4308 62.7677 85.8135L62.7676 85.8135L62.7649 85.8157L55.9399 91.4183L55.9399 91.4183L55.9367 91.421C55.6852 91.6338 55.5312 91.9595 55.5312 92.2913V101.474C55.5312 101.962 55.8419 102.393 56.2904 102.544L55.2151 109.051C55.1651 109.332 55.3012 109.581 55.5136 109.697C55.7337 109.818 56.0265 109.79 56.2203 109.555L56.2211 109.554L61.8243 102.69L99.8745 103.38Z" fill="#16162E" stroke="black" stroke-width="0.564286"/>
</svg>
