<?xml version="1.0" encoding="UTF-8"?>
<svg width="164px" height="174px" viewBox="0 0 164 174" version="1.1" xmlns="http://www.w3.org/2000/svg" xmlns:xlink="http://www.w3.org/1999/xlink">
    <title>Group 3</title>
    <defs>
        <linearGradient x1="49.9998846%" y1="1.37576744e-06%" x2="49.9998846%" y2="100%" id="linearGradient-1">
            <stop stop-color="#00C113" offset="0%"></stop>
            <stop stop-color="#21E261" offset="28.4375%"></stop>
            <stop stop-color="#30C699" offset="63.3333%"></stop>
            <stop stop-color="#00C5AD" offset="100%"></stop>
        </linearGradient>
        <linearGradient x1="49.9989961%" y1="-3.9636452e-06%" x2="49.9989961%" y2="100%" id="linearGradient-2">
            <stop stop-color="#00C113" offset="0%"></stop>
            <stop stop-color="#21E261" offset="28.4375%"></stop>
            <stop stop-color="#30C699" offset="63.3333%"></stop>
            <stop stop-color="#00C5AD" offset="100%"></stop>
        </linearGradient>
        <linearGradient x1="50.0000342%" y1="0%" x2="50.0000342%" y2="100%" id="linearGradient-3">
            <stop stop-color="#00C113" offset="0%"></stop>
            <stop stop-color="#21E261" offset="28.4375%"></stop>
            <stop stop-color="#30C699" offset="63.3333%"></stop>
            <stop stop-color="#00C5AD" offset="100%"></stop>
        </linearGradient>
        <linearGradient x1="51.2826806%" y1="0%" x2="51.2826806%" y2="100%" id="linearGradient-4">
            <stop stop-color="#00C113" offset="0%"></stop>
            <stop stop-color="#21E261" offset="28.4375%"></stop>
            <stop stop-color="#30C699" offset="63.3333%"></stop>
            <stop stop-color="#00C5AD" offset="100%"></stop>
        </linearGradient>
        <linearGradient x1="50.0000342%" y1="0%" x2="50.0000342%" y2="100%" id="linearGradient-5">
            <stop stop-color="#00C113" offset="0%"></stop>
            <stop stop-color="#21E261" offset="28.4375%"></stop>
            <stop stop-color="#30C699" offset="63.3333%"></stop>
            <stop stop-color="#00C5AD" offset="100%"></stop>
        </linearGradient>
    </defs>
    <g id="Page-1" stroke="none" stroke-width="1" fill="none" fill-rule="evenodd">
        <g id="Group-3" transform="translate(0.218254, -0.000000)" fill-rule="nonzero">
            <g id="Group-2" transform="translate(0.000000, 0.000000)">
                <path d="M34.3144459,26.4189004 C35.7132459,26.4189004 37.1205459,25.9474004 38.2787459,24.9813004 L55.1004459,10.9533004 C57.7280459,8.76206036 58.0818459,4.85539036 55.8906459,2.22772036 C53.6993459,-0.399961636 49.7927459,-0.754014636 47.1650459,1.43752036 L30.3433459,15.4662004 C27.7156459,17.6574004 27.3619459,21.5640004 29.5531459,24.1917004 C30.7785459,25.6606004 32.5398459,26.4189004 34.3144459,26.4189004 Z" id="Path-Copy" fill="url(#linearGradient-1)"></path>
                <path d="M125.044746,10.9533004 L141.865746,24.9813004 C143.024746,25.9474004 144.431746,26.4189004 145.830746,26.4189004 C147.604746,26.4189004 149.366746,25.6606004 150.591746,24.1914004 C152.782746,21.5637004 152.429746,17.6570004 149.801746,15.4658004 L132.979746,1.43750036 C130.351746,-0.753731636 126.445746,-0.400297636 124.254746,2.22769036 C122.062746,4.85536036 122.416746,8.76172036 125.044746,10.9533004 Z" id="Path-Copy-2" fill="url(#linearGradient-2)"></path>
                <path d="M142.370746,33.8014004 C129.959746,21.3910004 113.872746,13.9961004 96.5649459,12.6260004 L96.5649459,6.19516036 C96.5649459,2.77357036 93.7913459,3.6470675e-07 90.3697459,3.6470675e-07 C86.9482459,3.6470675e-07 84.1746459,2.77357036 84.1746459,6.19516036 L84.1746459,12.6793004 C67.1029459,14.1751004 51.2507459,21.5393004 38.9883459,33.8017004 C25.1809459,47.6086004 17.5766459,65.9664004 17.5766459,85.4926004 C17.5766459,105.019 25.1809459,123.377 38.9880459,137.184 C40.2686459,138.464 41.5887459,139.691 42.9449459,140.864 L37.9633459,149.231 C36.2132459,152.171 37.1775459,155.973 40.1174459,157.723 C41.1111459,158.315 42.2027459,158.596 43.2806459,158.596 C45.3926459,158.596 47.4509459,157.516 48.6097459,155.569 L53.0114459,148.175 C64.2680459,154.967 77.1945459,158.596 90.6792459,158.596 C104.109746,158.596 116.999746,155.008 128.339746,148.164 L132.748746,155.569 C133.907746,157.515 135.965746,158.596 138.077746,158.596 C139.155746,158.596 140.247746,158.314 141.240746,157.723 C144.180746,155.973 142.482746,155.974 140.732746,153.034 L130.086746,141.862 C129.191746,140.359 125.109746,140.877 126.058746,136.727 C124.344746,136.381 125.778746,135.269 124.370746,136.306 C113.894746,144.026 103.736746,146.205 90.6792459,146.205 C57.2024459,146.205 29.9669459,118.97 29.9669459,85.4926004 C29.9669459,52.0155004 57.2024459,24.7806004 90.6792459,24.7806004 C124.155746,24.7806004 151.391746,52.0158004 151.391746,85.4929004 C151.391746,95.7183004 148.803746,105.825 143.907746,114.72 C142.257746,117.718 143.349746,121.485 146.347746,123.135 C149.344746,124.784 153.112746,123.692 154.762746,120.694 C160.662746,109.974 163.781746,97.8011004 163.781746,85.4926004 C163.781746,65.9664004 156.177746,47.6086004 142.370746,33.8014004 Z" id="Path-Copy-3" fill="url(#linearGradient-3)"></path>
                <path d="M90.6789459,48.3013004 C87.7641459,48.3013004 86.3051459,50.6470004 86.3051459,53.5409004 L86.3051459,86.8122004 C86.3051459,88.2020004 86.8611459,89.5347004 87.8509459,90.5174004 L102.777746,105.337 C103.807746,106.36 105.158746,106.872 106.509746,106.872 C107.860746,106.872 109.210746,106.36 110.240746,105.337 C111.406746,103.639 111.786746,101.737 109.314746,99.2650004 L95.2428459,85.3831004 L95.2428459,53.5409004 C95.2428459,50.6470004 93.5936459,48.3013004 90.6789459,48.3013004 Z" id="Path-Copy-4" fill="url(#linearGradient-4)"></path>
                <rect id="Rectangle" fill="url(#linearGradient-5)" transform="translate(77.781746, 96.000000) rotate(-45.000000) translate(-77.781746, -96.000000) " x="70.7817459" y="-7" width="14" height="206" rx="7"></rect>
            </g>
        </g>
    </g>
</svg>