<svg width="104" height="104" viewBox="0 0 104 104" fill="none" xmlns="http://www.w3.org/2000/svg">
<path fill-rule="evenodd" clip-rule="evenodd" d="M0 6C0 2.68629 2.68629 0 6 0H98C101.314 0 104 2.68629 104 6V98C104 101.314 101.314 104 98 104H6C2.68629 104 0 101.314 0 98V6Z" fill="#EBC871"/>
<path fill-rule="evenodd" clip-rule="evenodd" d="M3.29114 9.29102C3.29114 5.97731 5.97743 3.29102 9.29114 3.29102H94.7089C98.0226 3.29102 100.709 5.97731 100.709 9.29102V94.7087C100.709 98.0225 98.0226 100.709 94.7089 100.709H9.29114C5.97743 100.709 3.29114 98.0225 3.29114 94.7087V9.29102Z" fill="white"/>
<mask id="mask0" mask-type="alpha" maskUnits="userSpaceOnUse" x="3" y="3" width="98" height="98">
<path fill-rule="evenodd" clip-rule="evenodd" d="M3 9C3 5.68629 5.68629 3 9 3H95C98.3137 3 101 5.68629 101 9V95C101 98.3137 98.3137 101 95 101H9C5.68629 101 3 98.3137 3 95V9Z" fill="white"/>
</mask>
<g mask="url(#mask0)">
</g>
<path d="M52.8571 26.7795C52.4217 26.605 51.9357 26.605 51.5003 26.7795L29.7331 35.4857L38.5012 38.9908L60.9469 30.0147L52.8571 26.7795ZM65.8562 31.9806L43.4105 40.9567L52.1787 44.4618L74.6244 35.4857L65.8562 31.9806ZM77.71 38.1811L54.0024 47.6641V76.5583L77.71 67.0752V38.1847V38.1811ZM50.355 76.5619V47.6605L26.6474 38.1811V67.0789L50.355 76.5619ZM50.1471 23.3912C51.4513 22.8696 52.9061 22.8696 54.2103 23.3912L80.2121 33.7934C80.5501 33.9288 80.8399 34.1624 81.044 34.4641C81.2481 34.7657 81.3572 35.1215 81.3573 35.4857V67.0789C81.3569 67.8077 81.1381 68.5196 80.7291 69.1229C80.3202 69.7262 79.74 70.1932 79.0631 70.4636L52.8571 80.946C52.4217 81.1205 51.9357 81.1205 51.5003 80.946L25.2979 70.4636C24.6204 70.1938 24.0394 69.727 23.6298 69.1237C23.2202 68.5204 23.0008 67.8081 23.0001 67.0789V35.4857C23.0002 35.1215 23.1093 34.7657 23.3134 34.4641C23.5175 34.1624 23.8073 33.9288 24.1454 33.7934L50.1471 23.3912Z" fill="#EBC871"/>
</svg>
