<svg width="21" height="22" viewBox="0 0 21 22" fill="none" xmlns="http://www.w3.org/2000/svg">
<path fill-rule="evenodd" clip-rule="evenodd" d="M18.1041 12H5.06251C4.72884 12 4.45834 11.7202 4.45834 11.375C4.45834 11.0298 4.72884 10.75 5.06251 10.75H18.1041L14.3014 6.8175C14.0652 6.57311 14.0652 6.17689 14.3014 5.9325C14.5377 5.68811 14.9207 5.68811 15.1569 5.9325L19.9903 10.9325C20.1039 11.0498 20.1678 11.209 20.1678 11.375C20.1678 11.541 20.1039 11.7002 19.9903 11.8175L15.1569 16.8175C14.9207 17.0619 14.5377 17.0619 14.3014 16.8175C14.0652 16.5731 14.0652 16.1769 14.3014 15.9325L18.1041 12ZM0.833344 1.375C0.833344 1.02982 1.10384 0.75 1.43751 0.75C1.77118 0.75 2.04168 1.02982 2.04168 1.375V21.375C2.04168 21.7202 1.77118 22 1.43751 22C1.10384 22 0.833344 21.7202 0.833344 21.375V1.375Z" fill="black"/>
</svg>
