<svg width="64" height="48" viewBox="0 0 64 48" fill="none" xmlns="http://www.w3.org/2000/svg">
<path fill-rule="evenodd" clip-rule="evenodd" d="M52.4158 2.30291L23.2822 31.5045L12.0769 20.2992C10.4173 18.3612 7.81135 17.517 5.33057 18.1138C2.8498 18.7105 0.912861 20.6475 0.316119 23.1282C-0.280624 25.609 0.563544 28.2149 2.50155 29.8746L18.4605 45.9015C19.7421 47.1727 21.4771 47.8813 23.2822 47.8709C25.0637 47.8634 26.771 47.1561 28.0359 45.9015L61.9912 11.9462C63.2768 10.6711 64 8.93532 64 7.12457C64 5.31381 63.2768 3.57805 61.9912 2.30291C59.3424 -0.330138 55.0646 -0.330138 52.4158 2.30291Z" fill="#75BB5E"/>
</svg>
