<svg width="66" height="48" viewBox="0 0 66 48" fill="none" xmlns="http://www.w3.org/2000/svg">
<path d="M51 43.5C53.49 43.5 55.5 41.49 55.5 39C55.5 36.51 53.49 34.5 51 34.5C48.51 34.5 46.5 36.51 46.5 39C46.5 41.49 48.51 43.5 51 43.5ZM55.5 16.5H48V24H61.38L55.5 16.5ZM15 43.5C17.49 43.5 19.5 41.49 19.5 39C19.5 36.51 17.49 34.5 15 34.5C12.51 34.5 10.5 36.51 10.5 39C10.5 41.49 12.51 43.5 15 43.5ZM57 12L66 24V39H60C60 43.98 55.98 48 51 48C46.02 48 42 43.98 42 39H24C24 43.98 19.98 48 15 48C10.02 48 6 43.98 6 39H0V6C0 2.67 2.67 0 6 0H48V12H57ZM6 6V33H8.28C9.93 31.17 12.33 30 15 30C17.67 30 20.07 31.17 21.72 33H42V6H6ZM27 9L37.5 19.5L27 30V22.5H12V16.5H27V9Z" fill="#9FB7E7"/>
</svg>
