<svg width="59" height="59" viewBox="0 0 59 59" fill="none" xmlns="http://www.w3.org/2000/svg">
<path d="M29.8571 3.77954C29.4217 3.60504 28.9357 3.60504 28.5003 3.77954L6.73306 12.4857L15.5012 15.9908L37.9469 7.01472L29.8571 3.77954ZM42.8562 8.98063L20.4105 17.9567L29.1787 21.4618L51.6244 12.4857L42.8562 8.98063ZM54.71 15.1811L31.0024 24.6641V53.5583L54.71 44.0752V15.1847V15.1811ZM27.355 53.5619V24.6605L3.64742 15.1811V44.0789L27.355 53.5619ZM27.1471 0.391178C28.4513 -0.130393 29.9061 -0.130393 31.2103 0.391178L57.2121 10.7934C57.5501 10.9288 57.8399 11.1624 58.044 11.4641C58.2481 11.7657 58.3572 12.1215 58.3573 12.4857V44.0789C58.3569 44.8077 58.1381 45.5196 57.7291 46.1229C57.3202 46.7262 56.74 47.1932 56.0631 47.4636L29.8571 57.946C29.4217 58.1205 28.9357 58.1205 28.5003 57.946L2.29791 47.4636C1.62042 47.1938 1.03937 46.727 0.629774 46.1237C0.220177 45.5204 0.000844103 44.8081 9.15527e-05 44.0789L9.15527e-05 12.4857C0.000176316 12.1215 0.109306 11.7657 0.313422 11.4641C0.517539 11.1624 0.807291 10.9288 1.14535 10.7934L27.1471 0.391178Z" fill="#EBC871"/>
</svg>
