<svg width="44" height="44" viewBox="0 0 44 44" fill="none" xmlns="http://www.w3.org/2000/svg">
<path d="M28.9998 22L42.5503 8.44951C44.4832 6.51655 44.4832 3.38267 42.5503 1.44972C40.6172 -0.483239 37.4835 -0.483239 35.5505 1.44972L22 15.0002L8.44951 1.44972C6.51655 -0.483239 3.38267 -0.483239 1.44972 1.44972C-0.483239 3.38267 -0.483239 6.51655 1.44972 8.44951L15.0002 22L1.44972 35.5505C-0.483239 37.4834 -0.483239 40.6173 1.44972 42.5503C2.41619 43.5167 3.68288 44 4.94956 44C6.21625 44 7.48303 43.5168 8.44941 42.5503L22 28.9998L35.5505 42.5503C36.517 43.5167 37.7836 44 39.0503 44C40.317 44 41.5837 43.5168 42.5502 42.5503C44.4831 40.6173 44.4831 37.4834 42.5502 35.5505L28.9998 22Z" fill="#F16C70"/>
</svg>
