<svg width="62" height="58" viewBox="0 0 62 58" fill="none" xmlns="http://www.w3.org/2000/svg">
<path d="M13.0769 16.4241L17.8589 14.9601C18.2357 14.8449 18.6316 14.805 19.0238 14.8427C19.4161 14.8805 19.797 14.9951 20.145 15.1801C20.4929 15.365 20.801 15.6167 21.0517 15.9208C21.3023 16.2248 21.4907 16.5753 21.6059 16.9521C21.7211 17.3289 21.761 17.7248 21.7233 18.117C21.6855 18.5092 21.5709 18.8902 21.3859 19.2381C21.201 19.5861 20.9493 19.8942 20.6452 20.1449C20.3412 20.3955 19.9907 20.5839 19.6139 20.6991L8.13891 24.2091C7.76189 24.3244 7.36584 24.3642 6.97342 24.3263C6.581 24.2884 6.1999 24.1735 5.8519 23.9882C5.50391 23.8029 5.19584 23.5509 4.94533 23.2465C4.69481 22.942 4.50675 22.5912 4.39191 22.2141L0.881905 10.7391C0.76667 10.3623 0.726786 9.96642 0.764528 9.57418C0.802271 9.18194 0.916902 8.80097 1.10188 8.45303C1.47545 7.75033 2.11287 7.22481 2.87391 6.99209C3.63494 6.75936 4.45726 6.83849 5.15996 7.21206C5.5079 7.39703 5.816 7.64873 6.06667 7.95277C6.31734 8.25682 6.50567 8.60726 6.6209 8.98409L7.94091 13.3071C15.1649 2.18009 29.4959 -2.60491 42.2189 2.60909C46.0238 4.16867 49.4407 6.54312 52.2292 9.56536C55.0177 12.5876 57.11 16.1842 58.3589 20.1021C58.4869 20.4795 58.5385 20.8786 58.5105 21.2762C58.4826 21.6737 58.3757 22.0618 58.1961 22.4175C58.0166 22.7733 57.7679 23.0898 57.4647 23.3484C57.1615 23.607 56.8097 23.8026 56.4301 23.9238C56.0504 24.045 55.6504 24.0893 55.2534 24.0541C54.8564 24.019 54.4704 23.9051 54.1179 23.7191C53.7655 23.5332 53.4536 23.2788 53.2005 22.971C52.9474 22.6631 52.7582 22.3079 52.6439 21.9261C51.3765 17.9462 49.0093 14.4059 45.8156 11.7141C42.6219 9.02223 38.7319 7.28855 34.5949 6.71323C30.4579 6.13792 26.2425 6.74442 22.4355 8.46272C18.6285 10.181 15.3852 12.941 13.0799 16.4241H13.0769ZM50.0579 41.0091L44.7329 42.3381C44.3473 42.4438 43.9445 42.4714 43.5481 42.4193C43.1517 42.3671 42.7698 42.2362 42.4247 42.0343C42.0796 41.8325 41.7783 41.5636 41.5386 41.2437C41.2989 40.9237 41.1255 40.559 41.0287 40.1711C40.932 39.7832 40.9137 39.3798 40.975 38.9847C41.0363 38.5897 41.176 38.2108 41.3858 37.8705C41.5957 37.5302 41.8714 37.2352 42.1968 37.003C42.5223 36.7707 42.8909 36.6059 43.2809 36.5181L54.2099 33.7911C54.7794 33.5202 55.4199 33.4362 56.0399 33.5511C56.6373 33.6297 57.1972 33.8863 57.6467 34.2877C58.0962 34.689 58.4144 35.2164 58.5599 35.8011L61.4639 47.4411C61.6359 48.2056 61.502 49.0071 61.0908 49.6741C60.6795 50.3411 60.0236 50.8208 59.2633 51.0105C58.503 51.2002 57.6986 51.0848 57.0222 50.6891C56.3458 50.2934 55.8511 49.6488 55.6439 48.8931L54.6539 44.9271C51.7654 49.0838 47.8093 52.3845 43.2023 54.4816C38.5953 56.5786 33.5081 57.3943 28.4764 56.8427C23.4448 56.2911 18.655 54.3927 14.6117 51.3475C10.5684 48.3022 7.42133 44.2228 5.50191 39.5391L4.72191 37.6371C4.42035 36.9007 4.42368 36.0747 4.73114 35.3408C5.03861 34.6069 5.62503 34.0251 6.36141 33.7236C7.09778 33.422 7.92378 33.4254 8.65771 33.7328C9.39163 34.0403 9.97336 34.6267 10.2749 35.3631L11.0549 37.2621C12.5842 40.9936 15.1034 44.2366 18.3407 46.6411C21.5781 49.0457 25.4107 50.5205 29.4248 50.9065C33.439 51.2924 37.4823 50.5748 41.1185 48.8311C44.7547 47.0874 47.8457 44.3838 50.0579 41.0121V41.0091Z" fill="#7F8FA4"/>
</svg>
