<svg width="38" height="46" viewBox="0 0 38 46" fill="none" xmlns="http://www.w3.org/2000/svg">
<path fill-rule="evenodd" clip-rule="evenodd" d="M18.675 45.1326C16.17 45.1326 13.8444 44.0043 12.2945 42.037C9.49936 38.4888 5.62326 33.2168 3.03029 28.2505C1.79791 25.8899 2.41246 22.9731 4.4917 21.315L12.3987 15.0096C12.4113 14.9996 12.424 14.9897 12.4369 14.9799C16.1363 12.1955 21.3036 12.1955 25.0031 14.9799L26.8038 16.3353V14.7864C26.8038 13.8314 27.578 13.0573 28.533 13.0573C29.488 13.0573 30.2622 13.8314 30.2622 14.7864V19.801C30.2622 20.4565 29.8915 21.0556 29.305 21.3483C28.7184 21.6409 28.0168 21.5766 27.4932 21.1825L22.9234 17.743C20.4547 15.885 17.0085 15.8805 14.5351 17.7293L6.64797 24.0189C5.86024 24.6472 5.62802 25.7537 6.09602 26.65C8.56553 31.3799 12.3072 36.4644 15.0112 39.8969C15.901 41.0264 17.2364 41.6743 18.675 41.6743C20.1159 41.6743 21.4539 41.025 22.3457 39.8928C29.5746 30.7157 33.7205 23.2462 33.7205 19.3995C33.7205 11.0874 26.9719 4.32497 18.6767 4.32497C11.1029 4.32497 4.68579 9.99223 3.74988 17.5074C3.63187 18.4551 2.76815 19.1278 1.82031 19.0097C0.872636 18.8916 0.200077 18.0278 0.318092 17.0801C1.4692 7.83691 9.36172 0.866638 18.6767 0.866638C23.626 0.866638 28.2751 2.79492 31.7676 6.29631C35.257 9.79459 37.1788 14.4481 37.1788 19.3995C37.1788 22.2531 35.7858 25.9865 32.9201 30.8129C30.9291 34.1663 28.2854 37.9413 25.0623 42.0328C23.5106 44.0027 21.1825 45.1325 18.675 45.1326Z" fill="#00983D"/>
</svg>
