<svg width="16" height="16" viewBox="0 0 16 16" fill="none" xmlns="http://www.w3.org/2000/svg">
<path d="M5.92298 3.86933C5.96412 4.08908 6.18212 4.26239 6.43928 4.21431C6.68897 4.16218 6.83097 3.92277 6.78426 3.69771C6.72941 3.43602 6.47094 3.29024 6.22605 3.36328C6.00732 3.42855 5.87794 3.65443 5.92298 3.86933Z" fill="#00983D" stroke="#00983D" stroke-width="0.2"/>
<path d="M15.3869 10.0049C12.9966 3.04689 13.161 3.52361 13.1508 3.49992C12.902 2.92406 12.419 2.4764 11.8256 2.27166C11.7407 2.24234 6.92936 1.11687 6.79031 1.06873C6.36387 0.921039 5.77141 1.00383 5.35549 1.38637L1.23233 5.18035C0.768789 5.6067 0.50293 6.21363 0.50293 6.84556V13.5641C0.50293 14.3558 1.14362 15 1.93115 15H10.7523C11.5398 15 12.1805 14.3558 12.1805 13.5641V12.9147L14.6392 11.8624C15.3541 11.5531 15.6866 10.7229 15.3869 10.0049ZM10.7523 14.1214H1.93115C1.62807 14.1214 1.38151 13.8714 1.38151 13.5641V6.84556C1.38151 6.45872 1.54393 6.08743 1.82716 5.82693C5.35965 2.57652 3.17619 4.60394 5.96438 2.03265C6.10978 1.89864 6.31054 1.84481 6.50966 1.90485C6.68763 1.958 6.37359 1.70222 10.8563 5.82699C11.1395 6.08746 11.3019 6.45872 11.3019 6.84556V13.5641C11.3019 13.8714 11.0553 14.1214 10.7523 14.1214ZM14.2919 11.0554L12.1805 11.959V6.84556C12.1805 6.21363 11.9146 5.6067 11.4511 5.18041L8.38054 2.35497L11.5582 3.10898C11.905 3.23452 12.1878 3.49734 12.3379 3.83401C14.7237 10.7787 14.5628 10.3126 14.5732 10.3366C14.6932 10.6139 14.5663 10.9367 14.2919 11.0554Z" fill="#00983D" stroke="#00983D" stroke-width="0.2"/>
<path d="M7.58911 6.42752C7.36545 6.33363 7.10793 6.43894 7.01404 6.66263L4.87548 11.7596C4.75348 12.0504 4.96899 12.369 5.28036 12.369C5.45201 12.369 5.61507 12.2677 5.68565 12.0995L7.82421 7.00258C7.91808 6.77884 7.81282 6.52138 7.58911 6.42752Z" fill="#00983D" stroke="#00983D" stroke-width="0.2"/>
<path d="M5.53017 7.69313C5.53017 6.84529 4.90922 6.15552 4.14593 6.15552C3.38264 6.15552 2.76172 6.84529 2.76172 7.69313C2.76172 8.54096 3.38267 9.23074 4.14596 9.23074C4.90925 9.23074 5.53017 8.54096 5.53017 7.69313ZM4.14596 8.35215C3.87187 8.35215 3.6403 8.05036 3.6403 7.69313C3.6403 7.33589 3.87184 7.0341 4.14596 7.0341C4.42008 7.0341 4.65162 7.33589 4.65162 7.69313C4.65159 8.05036 4.42005 8.35215 4.14596 8.35215Z" fill="#00983D" stroke="#00983D" stroke-width="0.2"/>
<path d="M8.57857 9.64038C7.81529 9.64038 7.19434 10.3302 7.19434 11.178C7.19434 12.0258 7.81529 12.7156 8.57857 12.7156C9.34186 12.7156 9.96281 12.0258 9.96281 11.178C9.96281 10.3302 9.34183 9.64038 8.57857 9.64038ZM8.57857 11.837C8.30448 11.837 8.07292 11.5352 8.07292 11.178C8.07292 10.8208 8.30446 10.519 8.57857 10.519C8.85269 10.519 9.08423 10.8208 9.08423 11.178C9.08423 11.5352 8.85266 11.837 8.57857 11.837Z" fill="#00983D" stroke="#00983D" stroke-width="0.2"/>
</svg>
