<svg width="121" height="122" viewBox="0 0 121 122" fill="none" xmlns="http://www.w3.org/2000/svg">
<path d="M60.5 121.89C93.9132 121.89 121 94.6038 121 60.9448C121 27.2859 93.9132 0 60.5 0C27.0868 0 0 27.2859 0 60.9448C0 94.6038 27.0868 121.89 60.5 121.89Z" fill="#FFE797"/>
<path d="M40.008 60.9442C37.3134 60.9442 35.129 58.7438 35.129 56.0294V52.0975C35.129 49.3831 37.3134 47.1826 40.008 47.1826C42.7026 47.1826 44.887 49.3831 44.887 52.0975V56.0294C44.887 58.7438 42.7026 60.9442 40.008 60.9442Z" fill="#7D5046"/>
<path d="M40.0079 47.1826C39.6737 47.1826 39.3476 47.2171 39.0321 47.2817V54.0634C39.0321 55.692 40.3428 57.0124 41.9595 57.0124C43.5762 57.0124 44.8869 55.692 44.8869 54.0634V52.0975C44.8869 49.3828 42.7028 47.1826 40.0079 47.1826Z" fill="#9C6846"/>
<path d="M80.992 60.9442C78.2974 60.9442 76.113 58.7438 76.113 56.0294V52.0975C76.113 49.3831 78.2974 47.1826 80.992 47.1826C83.6866 47.1826 85.871 49.3831 85.871 52.0975V56.0294C85.871 58.7438 83.6866 60.9442 80.992 60.9442Z" fill="#7D5046"/>
<path d="M80.992 47.1826C80.6579 47.1826 80.3317 47.2171 80.0162 47.2817V54.0634C80.0162 55.692 81.3269 57.0124 82.9436 57.0124C84.5604 57.0124 85.871 55.692 85.871 54.0634V52.0975C85.871 49.3828 83.6866 47.1826 80.992 47.1826Z" fill="#9C6846"/>
<path d="M40.9762 90.9264C40.3854 90.9264 39.7927 90.7114 39.3238 90.2774C38.3326 89.3577 38.2679 87.8036 39.1808 86.8042C44.1323 81.3835 52.1006 78.1475 60.4922 78.1475C68.8875 78.1475 76.8541 81.3844 81.8035 86.8052C82.7165 87.8036 82.6517 89.3587 81.6605 90.2774C80.6715 91.197 79.1257 91.1347 78.2128 90.1324C74.1704 85.7051 67.5456 83.0623 60.4919 83.0623C53.4401 83.0623 46.8154 85.7051 42.7711 90.1334C42.2914 90.6597 41.6337 90.9264 40.9762 90.9264Z" fill="#AA7346"/>
<path d="M69.2822 113.043C35.8689 113.043 8.78219 85.7569 8.78219 52.098C8.78219 37.5219 13.8682 24.1465 22.3418 13.6592C8.71177 24.834 0 41.8619 0 60.9448C0 94.6037 27.0868 121.89 60.5 121.89C79.4438 121.89 96.3474 113.114 107.441 99.3833C97.03 107.919 83.7521 113.043 69.2822 113.043Z" fill="#FCD882"/>
</svg>
