<svg width="104" height="104" viewBox="0 0 104 104" fill="none" xmlns="http://www.w3.org/2000/svg">
<path fill-rule="evenodd" clip-rule="evenodd" d="M0 6C0 2.68629 2.68629 0 6 0H98C101.314 0 104 2.68629 104 6V98C104 101.314 101.314 104 98 104H6C2.68629 104 0 101.314 0 98V6Z" fill="#9FB7E7"/>
<path fill-rule="evenodd" clip-rule="evenodd" d="M3.29114 9.29102C3.29114 5.97731 5.97743 3.29102 9.29114 3.29102H94.7089C98.0226 3.29102 100.709 5.97731 100.709 9.29102V94.7087C100.709 98.0225 98.0226 100.709 94.7089 100.709H9.29114C5.97743 100.709 3.29114 98.0225 3.29114 94.7087V9.29102Z" fill="white"/>
<mask id="mask0" mask-type="alpha" maskUnits="userSpaceOnUse" x="3" y="3" width="98" height="98">
<path fill-rule="evenodd" clip-rule="evenodd" d="M3 9C3 5.68629 5.68629 3 9 3H95C98.3137 3 101 5.68629 101 9V95C101 98.3137 98.3137 101 95 101H9C5.68629 101 3 98.3137 3 95V9Z" fill="white"/>
</mask>
<g mask="url(#mask0)">
</g>
<path d="M70 71.5C72.49 71.5 74.5 69.49 74.5 67C74.5 64.51 72.49 62.5 70 62.5C67.51 62.5 65.5 64.51 65.5 67C65.5 69.49 67.51 71.5 70 71.5ZM74.5 44.5H67V52H80.38L74.5 44.5ZM34 71.5C36.49 71.5 38.5 69.49 38.5 67C38.5 64.51 36.49 62.5 34 62.5C31.51 62.5 29.5 64.51 29.5 67C29.5 69.49 31.51 71.5 34 71.5ZM76 40L85 52V67H79C79 71.98 74.98 76 70 76C65.02 76 61 71.98 61 67H43C43 71.98 38.98 76 34 76C29.02 76 25 71.98 25 67H19V34C19 30.67 21.67 28 25 28H67V40H76ZM25 34V61H27.28C28.93 59.17 31.33 58 34 58C36.67 58 39.07 59.17 40.72 61H61V34H25ZM46 37L56.5 47.5L46 58V50.5H31V44.5H46V37Z" fill="#9FB7E7"/>
</svg>
