<svg width="30" height="9" viewBox="0 0 30 9" fill="none" xmlns="http://www.w3.org/2000/svg">
<path fill-rule="evenodd" clip-rule="evenodd" d="M6.46492 6.10237L8.81509 0V0.0009857H11.3531L7.58163 8.97292H5.0436L2.89154 1.25194C4.41196 2.00146 5.77435 3.51037 6.2089 4.89893L6.46492 6.10237ZM12.3198 0L10.8191 8.98189H13.2178L14.7177 0H12.3198ZM19.5555 3.65968C18.7173 3.26156 18.2034 2.99286 18.2034 2.58567C18.2137 2.21544 18.638 1.83614 19.5855 1.83614C20.3648 1.81731 20.9376 1.99346 21.3722 2.16872L21.5899 2.26216L21.916 0.382924C21.4422 0.206779 20.6909 0.0126953 19.763 0.0126953C17.3942 0.0126953 15.7262 1.19721 15.7158 2.89133C15.6962 4.14149 16.91 4.83523 17.8184 5.25139C18.7463 5.6783 19.0622 5.95508 19.0622 6.33438C19.0519 6.91673 18.3118 7.18543 17.6213 7.18543C16.6644 7.18543 16.1505 7.04704 15.3702 6.72255L15.0543 6.58415L14.7189 8.53712C15.2824 8.77802 16.3186 8.99005 17.3943 9.00089C19.9117 9.00089 21.5498 7.83432 21.5704 6.02881C21.5786 5.03838 20.9385 4.27979 19.5555 3.65968ZM26.2097 0.0281466H28.0656L29.9998 8.98944H27.7795L27.4198 7.2001H24.6033L23.9099 8.98224H21.3925L24.9556 0.750763C25.2033 0.186351 25.6378 0.0281466 26.2097 0.0281466ZM25.3019 5.40153C25.3531 5.397 26.268 2.49233 26.268 2.49233L26.9987 5.40153H25.3019Z" fill="#28338A"/>
<path d="M5.33262 1.20947C5.14906 0.493313 4.56368 0.0103074 3.76866 0H0.0384159L0 0.173783C2.90985 0.893653 5.35224 3.10872 6.14459 5.19226L5.33262 1.20947Z" fill="#F99900"/>
</svg>
